<?xml version="1.0" standalone="no"?>
<!DOCTYPE svg PUBLIC "-//W3C//DTD SVG 20010904//EN"
 "http://www.w3.org/TR/2001/REC-SVG-20010904/DTD/svg10.dtd">
<svg version="1.0" xmlns="http://www.w3.org/2000/svg"
 width="260px" height="75px" viewBox="0 0 3400.000000 1082.000000"
 preserveAspectRatio="xMidYMid meet">

<g transform="translate(0.000000,1082.000000) scale(0.100000,-0.100000)"
fill="#5400F5" stroke="none">
<path d="M7812 8800 c-56 -34 -62 -63 -62 -308 l0 -218 -132 -23 c-330 -57
-675 -147 -1012 -266 -104 -36 -192 -63 -197 -58 -4 4 -37 77 -72 161 -36 84
-73 164 -82 178 -21 32 -80 57 -120 51 -28 -5 -359 -139 -508 -206 -59 -26
-70 -36 -87 -73 -11 -24 -20 -50 -20 -58 0 -8 28 -82 61 -165 33 -82 69 -171
79 -197 l19 -47 -147 -87 c-283 -168 -581 -378 -826 -583 -60 -50 -114 -91
-120 -91 -6 0 -72 61 -146 136 -74 75 -150 142 -167 150 -22 9 -47 12 -74 8
-38 -6 -62 -27 -259 -224 -198 -197 -217 -220 -224 -258 -4 -28 -1 -53 8 -75
8 -17 75 -93 150 -167 75 -74 136 -140 136 -146 0 -6 -41 -60 -91 -120 -206
-247 -462 -611 -602 -857 -34 -60 -67 -111 -74 -114 -6 -2 -93 30 -193 71
-101 42 -197 76 -214 76 -36 0 -89 -30 -110 -62 -16 -24 -181 -418 -211 -503
-23 -63 -14 -117 23 -154 16 -16 96 -56 192 -95 91 -38 167 -70 169 -72 1 -1
-20 -65 -47 -141 -127 -348 -239 -775 -292 -1115 l-13 -78 -219 0 c-245 0
-271 -5 -306 -63 -21 -33 -22 -45 -22 -338 0 -416 -13 -399 290 -399 l190 0 0
-86 c0 -101 13 -131 73 -165 40 -22 43 -22 339 -16 328 6 329 6 368 70 16 25
20 50 20 115 l0 82 718 -2 717 -3 3 -88 c3 -99 14 -124 67 -157 31 -19 49 -20
330 -20 281 0 299 1 330 20 52 32 66 63 73 159 l7 86 190 5 c201 5 217 9 254
56 20 26 21 38 21 344 0 307 -1 318 -21 344 -37 47 -68 56 -194 56 -65 0 -115
4 -115 9 0 24 53 151 63 151 6 0 85 -30 176 -66 257 -103 247 -110 399 251
162 386 163 383 -93 491 -55 23 -101 46 -102 51 -2 5 14 33 36 61 l39 53 121
-116 c104 -101 126 -118 160 -122 22 -3 51 -3 65 1 28 7 313 279 409 390 59
68 59 70 55 122 -4 51 -7 55 -121 175 l-117 122 52 39 c29 21 55 35 59 31 4
-5 29 -60 55 -123 53 -128 90 -175 147 -185 30 -6 62 4 204 61 314 126 395
165 420 203 35 52 29 89 -42 262 -36 86 -65 161 -65 166 0 7 143 63 163 63 4
0 7 -52 7 -115 0 -126 9 -157 56 -194 26 -20 37 -21 344 -21 417 0 392 -17
400 275 l5 190 88 7 c100 9 134 26 161 82 24 51 24 591 0 642 -28 58 -59 73
-160 76 l-89 3 -5 205 c-5 217 -8 232 -56 269 -37 29 -121 29 -158 0 -48 -38
-51 -52 -56 -279 l-5 -214 -100 -13 c-55 -6 -112 -14 -127 -17 l-28 -5 0 724
0 724 43 5 c107 14 288 27 464 33 213 7 235 13 273 75 19 31 20 51 20 327 0
282 -1 295 -22 332 -29 53 -69 69 -167 69 l-81 0 0 190 c0 212 -5 235 -63 270
-30 19 -52 20 -337 20 -288 0 -307 -1 -338 -20z m468 -359 l0 -108 -57 -6
c-32 -4 -91 -9 -130 -13 l-73 -7 0 122 0 121 130 0 130 0 0 -109z m270 -501
c0 -117 -2 -130 -17 -130 -72 0 -378 -24 -518 -41 -1313 -153 -2546 -773
-3448 -1734 -421 -448 -723 -886 -988 -1430 -329 -678 -511 -1374 -559 -2135
-5 -91 -10 -173 -10 -182 0 -16 -13 -18 -130 -18 l-130 0 0 58 c0 156 37 532
76 772 133 820 452 1629 917 2325 383 574 858 1073 1417 1487 658 488 1460
852 2255 1023 351 75 772 129 1053 134 l82 1 0 -130z m-2435 -25 c19 -44 34
-87 35 -95 0 -13 -117 -75 -220 -118 -8 -3 -95 196 -88 203 11 11 215 94 226
92 8 -1 29 -38 47 -82z m1633 -1186 l-3 -732 -150 -43 c-82 -23 -190 -57 -239
-74 -48 -17 -90 -30 -92 -28 -14 14 -543 1313 -537 1319 16 14 274 102 453
154 154 44 429 111 530 128 14 2 28 5 33 6 4 0 6 -328 5 -730z m-1233 219 c88
-209 487 -1173 492 -1190 4 -13 -20 -29 -107 -73 -62 -31 -114 -55 -116 -53
-9 9 -29 58 -540 1286 l-14 34 113 53 c61 30 115 54 118 55 3 0 27 -51 54
-112z m-261 -763 c141 -341 263 -635 271 -653 8 -18 15 -37 15 -42 0 -4 -44
-39 -97 -76 -54 -37 -135 -96 -181 -130 -45 -35 -86 -64 -90 -64 -7 0 -396
390 -822 823 l-185 188 45 40 c184 163 760 561 782 540 4 -3 122 -285 262
-626z m-1962 343 l-92 -93 -82 83 -83 83 94 91 94 90 81 -81 81 -81 -93 -92z
m1176 -991 l502 -502 -93 -93 -92 -92 -505 505 -505 505 90 90 c49 49 92 90
95 90 3 0 231 -226 508 -503z m3082 164 l0 -129 -97 -6 c-976 -69 -1865 -541
-2479 -1316 -164 -207 -351 -527 -464 -794 -131 -310 -221 -683 -251 -1039
l-13 -147 -128 0 -128 0 0 53 c0 247 80 670 189 997 392 1175 1389 2099 2596
2404 217 55 536 102 703 105 l72 1 0 -129z m-3450 -549 c275 -272 500 -497
500 -502 0 -4 -40 -61 -88 -126 -49 -66 -109 -148 -133 -184 -30 -43 -51 -64
-62 -62 -15 3 -809 329 -1175 484 l-142 60 27 51 c107 198 534 785 564 775 6
-2 235 -225 509 -496z m3180 33 l0 -95 -130 0 -130 0 0 70 c0 47 4 72 13 75
10 4 214 41 240 44 4 1 7 -42 7 -94z m-922 -272 c18 -43 32 -83 32 -89 0 -15
-225 -114 -233 -103 -10 13 -57 133 -57 144 0 13 193 124 216 125 6 0 25 -35
42 -77z m-4341 20 c51 -20 93 -42 93 -48 0 -18 -99 -225 -107 -225 -6 0 -179
68 -191 75 -2 2 84 210 94 226 8 13 10 13 111 -28z m1495 -619 c354 -146 651
-270 660 -275 16 -9 14 -18 -28 -101 -26 -51 -53 -102 -61 -114 l-14 -22 -177
72 c-720 296 -1132 470 -1132 479 0 11 101 227 106 227 2 0 293 -120 646 -266z
m2093 86 l60 -60 -93 -93 -92 -92 -62 63 -63 62 90 90 c49 49 92 90 95 90 3 0
32 -27 65 -60z m-2281 -584 c351 -146 640 -267 642 -268 1 -2 -11 -42 -27 -88
-17 -47 -50 -152 -73 -235 l-43 -150 -709 -3 c-390 -1 -719 0 -730 3 -21 5
-21 6 -7 82 40 220 126 531 215 786 47 133 54 148 73 143 11 -3 307 -124 659
-270z m1734 -145 l42 -21 -19 -48 c-52 -130 -75 -182 -82 -182 -8 0 -69 23
-142 54 l-37 16 26 53 c15 28 42 80 61 114 l34 62 38 -14 c21 -7 57 -23 79
-34z m-3552 -938 c-4 -38 -9 -96 -12 -130 l-6 -63 -109 0 -109 0 0 130 0 130
121 0 121 0 -6 -67z m2258 40 c-3 -16 -11 -73 -17 -128 l-13 -100 -720 -3
-720 -2 12 120 c7 65 15 124 19 130 4 7 238 10 725 10 l720 0 -6 -27z m966
-103 l0 -130 -95 0 -94 0 4 28 c19 115 36 209 40 220 3 8 27 12 75 12 l70 0 0
-130z"/>
<path d="M8349 7185 c-83 -45 -87 -176 -7 -225 93 -56 208 6 208 113 0 40 -35
96 -70 114 -33 17 -99 16 -131 -2z"/>
<path d="M13148 6115 c-1 -2 -20 -6 -41 -9 -44 -7 -132 -37 -173 -59 -16 -9
-43 -22 -59 -30 -70 -33 -215 -211 -215 -264 0 -10 -4 -23 -9 -28 -29 -31 -54
-206 -31 -220 5 -3 7 -12 3 -21 -8 -23 18 -135 30 -127 6 4 8 0 4 -10 -3 -9
-1 -22 6 -29 7 -7 12 -20 12 -28 -1 -14 7 -26 67 -104 67 -86 131 -134 238
-178 94 -39 142 -48 255 -44 107 3 168 22 277 85 84 47 188 165 194 217 2 19
-6 27 -51 49 -30 14 -62 25 -73 25 -11 0 -30 8 -43 18 -48 37 -57 35 -115 -23
-31 -30 -62 -55 -69 -55 -8 0 -17 -4 -20 -10 -3 -5 -2 -10 3 -10 6 0 8 -9 5
-20 -7 -26 -23 -26 -23 0 0 20 -6 20 -86 4 -32 -6 -133 15 -174 36 -91 46
-149 148 -151 263 -1 56 3 82 20 114 11 23 21 46 21 50 0 13 80 77 125 100 67
34 120 43 178 27 64 -17 127 -44 127 -56 0 -4 6 -8 13 -8 7 0 26 -16 41 -35
33 -41 59 -44 125 -14 25 11 66 30 91 41 67 31 73 43 47 89 -12 21 -26 39 -32
39 -5 1 -19 15 -30 32 -11 17 -24 31 -30 30 -5 0 -15 9 -22 21 -13 25 -41 43
-128 85 -76 37 -112 46 -118 29 -4 -9 -6 -9 -6 1 -1 18 -19 15 -24 -5 -4 -14
-5 -13 -6 4 -1 17 -7 23 -23 23 -13 0 -46 2 -75 4 -28 3 -53 3 -55 1z m207
-55 c3 -5 1 -10 -4 -10 -6 0 -11 5 -11 10 0 6 2 10 4 10 3 0 8 -4 11 -10z m41
-47 c-10 -10 -19 5 -10 18 6 11 8 11 12 0 2 -7 1 -15 -2 -18z m109 7 c-3 -5
-12 -10 -18 -10 -7 0 -6 4 3 10 19 12 23 12 15 0z m-220 -10 c3 -6 -1 -7 -9
-4 -18 7 -21 14 -7 14 6 0 13 -4 16 -10z m-114 -31 c-9 -22 -10 -22 -10 -3 -1
11 2 24 6 27 12 12 14 0 4 -24z m79 21 c0 -5 -4 -10 -9 -10 -6 0 -13 5 -16 10
-3 6 1 10 9 10 9 0 16 -4 16 -10z m115 0 c-3 -5 -10 -10 -16 -10 -5 0 -9 5 -9
10 0 6 7 10 16 10 8 0 12 -4 9 -10z m-228 -28 c14 11 15 11 11 -2 -2 -8 -11
-15 -19 -15 -7 0 -14 7 -15 15 -1 10 1 10 3 2 4 -11 7 -11 20 0z m-130 -8 c-3
-3 -12 -4 -19 -1 -8 3 -5 6 6 6 11 1 17 -2 13 -5z m273 -4 c0 -5 -7 -10 -15
-10 -8 0 -15 5 -15 10 0 6 7 10 15 10 8 0 15 -4 15 -10z m-186 -21 c-6 -11
-24 -2 -24 11 0 5 7 7 15 4 8 -4 12 -10 9 -15z m-194 -4 c-7 -9 -15 -13 -17
-11 -7 7 7 26 19 26 6 0 6 -6 -2 -15z m113 -25 c-4 -4 -17 1 -28 13 -11 11
-15 17 -10 14 6 -3 17 -2 25 3 17 11 28 -16 13 -30z m37 31 c0 -6 -4 -13 -10
-16 -5 -3 -10 1 -10 9 0 9 5 16 10 16 6 0 10 -4 10 -9z m142 -13 c-7 -7 -12
-8 -12 -2 0 14 12 26 19 19 2 -3 -1 -11 -7 -17z m373 -8 c-6 -9 -9 -9 -16 1
-10 17 0 34 13 21 6 -6 7 -16 3 -22z m-411 -3 c8 -12 7 -20 -2 -29 -9 -9 -12
-7 -12 11 0 12 -4 19 -10 16 -5 -3 -10 1 -10 10 0 20 19 15 34 -8z m-44 -6 c0
-14 -5 -18 -19 -14 -13 3 -20 -2 -24 -17 -7 -26 -27 -18 -27 10 0 13 5 17 15
14 8 -4 15 -1 15 4 0 6 8 13 18 15 9 3 18 5 20 6 1 0 2 -8 2 -18z m-187 -21
c3 -11 1 -20 -4 -20 -5 0 -9 2 -9 4 0 2 -3 11 -6 20 -3 9 -2 16 4 16 5 0 12
-9 15 -20z m67 8 c0 -11 -28 -10 -35 1 -3 6 4 9 15 8 11 -1 20 -5 20 -9z m590
-17 c0 -11 -3 -22 -7 -24 -5 -3 -8 6 -8 19 0 13 3 24 8 24 4 0 7 -9 7 -19z
m-744 -28 c-10 -10 -19 5 -10 18 6 11 8 11 12 0 2 -7 1 -15 -2 -18z m99 2
c-16 -13 -32 -22 -34 -19 -7 6 40 44 54 43 6 0 -3 -11 -20 -24z m685 -9 c0 -5
-7 -3 -15 4 -8 7 -12 17 -9 22 7 10 24 -9 24 -26z m-664 -17 c3 -6 0 -15 -7
-20 -19 -12 -29 -11 -29 2 0 5 5 7 12 3 8 -5 9 -2 5 9 -7 19 8 23 19 6z m-176
-29 c0 -5 -5 -10 -11 -10 -5 0 -7 5 -4 10 3 6 8 10 11 10 2 0 4 -4 4 -10z
m-25 -20 c3 -5 -3 -10 -14 -10 -12 0 -21 -5 -21 -12 0 -6 -3 -8 -6 -5 -8 7 14
37 27 37 4 0 11 -4 14 -10z m91 -20 c-4 -22 -1 -32 9 -36 8 -4 15 -13 15 -20
0 -12 -4 -12 -24 1 -22 14 -23 19 -13 50 13 43 22 46 13 5z m41 8 c-3 -8 -6
-5 -6 6 -1 11 2 17 5 13 3 -3 4 -12 1 -19z m-187 -8 c0 -5 -4 -10 -10 -10 -5
0 -10 5 -10 10 0 6 5 10 10 10 6 0 10 -4 10 -10z m70 -24 c0 -7 11 -21 25 -30
19 -12 24 -23 20 -37 -5 -14 0 -22 22 -31 19 -7 23 -12 13 -15 -12 -3 -14 -14
-12 -43 2 -22 9 -40 16 -40 6 0 -2 -7 -17 -15 -25 -13 -32 -13 -59 1 -31 16
-31 16 -26 -10 3 -14 1 -23 -3 -20 -5 3 -9 -2 -9 -10 0 -9 -4 -16 -9 -16 -5 0
-11 -6 -13 -14 -2 -10 -9 -11 -25 -5 -22 8 -23 39 -1 39 5 0 7 -4 3 -9 -3 -5
0 -13 6 -17 8 -5 10 1 7 18 -4 22 -2 24 16 20 18 -5 19 -3 8 10 -9 11 -10 18
-2 23 5 3 7 18 4 32 -5 18 -3 24 5 19 6 -4 11 -13 11 -19 0 -7 14 -18 30 -24
25 -9 30 -9 30 3 0 8 -7 14 -15 14 -8 0 -15 5 -15 11 0 6 6 9 14 6 8 -3 20 1
26 9 10 11 9 14 -9 14 -11 0 -21 4 -21 10 0 5 7 7 16 3 14 -5 15 -3 5 16 -7
12 -9 30 -6 40 3 12 0 21 -10 25 -12 4 -14 0 -10 -17 4 -16 0 -26 -15 -35 -20
-12 -21 -12 -15 10 4 13 9 31 11 41 3 9 1 17 -5 17 -6 0 -11 -7 -11 -15 0 -8
-4 -15 -10 -15 -5 0 -7 -7 -4 -15 7 -16 -13 -20 -34 -6 -10 6 -7 12 12 25 14
9 26 25 26 35 0 10 3 21 7 24 11 12 23 8 23 -7z m128 -4 c17 -17 17 -19 0 -37
-16 -16 -18 -17 -18 -2 0 9 6 17 13 17 6 0 1 9 -13 20 -14 11 -19 20 -12 20 6
0 20 -8 30 -18z m-223 -32 c3 -5 1 -10 -4 -10 -6 0 -11 5 -11 10 0 6 2 10 4
10 3 0 8 -4 11 -10z m195 -35 c0 -9 -6 -12 -15 -9 -8 4 -15 10 -15 15 0 5 7 9
15 9 8 0 15 -7 15 -15z m-205 -15 c3 -5 1 -10 -4 -10 -6 0 -11 5 -11 10 0 6 2
10 4 10 3 0 8 -4 11 -10z m75 -31 c0 -14 -24 -23 -28 -11 -2 7 -11 12 -20 12
-14 0 -14 2 -3 9 15 10 51 3 51 -10z m36 -26 c-5 -12 -10 -13 -18 -5 -8 8 -8
15 3 28 15 18 25 4 15 -23z m93 -14 c-7 -4 -16 -5 -19 -2 -3 3 1 8 8 10 6 3
13 12 13 21 1 14 2 13 6 -2 3 -10 -1 -22 -8 -27z m-192 9 c-3 -8 -6 -5 -6 6
-1 11 2 17 5 13 3 -3 4 -12 1 -19z m43 -18 c0 -5 -2 -10 -4 -10 -3 0 -8 5 -11
10 -3 6 -1 10 4 10 6 0 11 -4 11 -10z m-16 -26 c4 -9 4 -19 1 -22 -3 -3 -5 0
-5 6 0 7 -7 12 -15 12 -8 0 -15 5 -15 10 0 16 27 11 34 -6z m191 -54 c3 -5 1
-10 -4 -10 -6 0 -11 5 -11 10 0 6 2 10 4 10 3 0 8 -4 11 -10z m-50 -19 c-3 -6
-11 -11 -17 -11 -6 0 -6 6 2 15 14 17 26 13 15 -4z m-200 -21 c3 -5 1 -10 -4
-10 -6 0 -11 5 -11 10 0 6 2 10 4 10 3 0 8 -4 11 -10z m139 -6 c9 -24 7 -27
-9 -10 -17 17 -19 26 -6 26 5 0 12 -7 15 -16z m60 -18 c-6 -17 -34 -30 -34
-16 0 5 8 14 18 19 22 13 22 13 16 -3z m-64 -33 c0 -6 -4 -15 -10 -18 -5 -3
-10 3 -10 14 0 12 -4 21 -10 21 -5 0 -10 5 -10 10 0 6 8 5 20 -2 11 -7 20 -18
20 -25z m-53 7 c18 -28 2 -31 -27 -4 -23 22 -23 24 -5 24 11 0 26 -9 32 -20z
m173 0 c0 -5 -5 -10 -11 -10 -5 0 -7 5 -4 10 3 6 8 10 11 10 2 0 4 -4 4 -10z
m-48 -20 c23 0 -3 -13 -32 -17 -26 -2 -29 -1 -18 12 7 8 19 12 26 10 8 -3 19
-5 24 -5z m-104 -38 c2 -7 -2 -10 -12 -6 -9 3 -16 11 -16 16 0 13 23 5 28 -10z
m92 -36 c0 -11 -19 -15 -25 -6 -3 5 1 10 9 10 9 0 16 -2 16 -4z m-10 -41 c-7
-9 -15 -13 -17 -11 -7 7 7 26 19 26 6 0 6 -6 -2 -15z m50 5 c0 -5 -4 -10 -10
-10 -5 0 -10 5 -10 10 0 6 5 10 10 10 6 0 10 -4 10 -10z m90 -4 c0 -3 -4 -8
-10 -11 -5 -3 -10 -1 -10 4 0 6 5 11 10 11 6 0 10 -2 10 -4z m462 -18 c-7 -7
-12 -8 -12 -2 0 14 12 26 19 19 2 -3 -1 -11 -7 -17z m134 -5 c-10 -10 -19 5
-10 18 6 11 8 11 12 0 2 -7 1 -15 -2 -18z m-31 -3 c3 -5 2 -10 -4 -10 -5 0
-13 5 -16 10 -3 6 -2 10 4 10 5 0 13 -4 16 -10z m-35 -10 c0 -5 -4 -10 -10
-10 -5 0 -10 5 -10 10 0 6 5 10 10 10 6 0 10 -4 10 -10z m68 -46 c11 -12 11
-14 -2 -14 -9 0 -25 9 -37 21 l-21 21 23 -7 c13 -4 29 -14 37 -21z m-168 -30
c0 -14 -4 -23 -9 -20 -5 3 -8 17 -8 31 0 13 3 22 8 19 5 -3 9 -16 9 -30z m70
-4 c0 -5 -4 -10 -10 -10 -5 0 -10 5 -10 10 0 6 5 10 10 10 6 0 10 -4 10 -10z
m80 0 c0 -5 -5 -10 -11 -10 -5 0 -7 5 -4 10 3 6 8 10 11 10 2 0 4 -4 4 -10z
m-503 -106 c-9 -9 -28 6 -21 18 4 6 10 6 17 -1 6 -6 8 -13 4 -17z"/>
<path d="M20025 6109 c-4 -5 -17 -9 -28 -8 -45 5 -161 -36 -178 -64 -4 -5 -12
-6 -19 -2 -7 4 -13 -1 -17 -14 -3 -12 -12 -21 -21 -21 -8 0 -13 -3 -10 -6 3
-3 -6 -18 -21 -33 -43 -44 -71 -131 -61 -194 4 -26 3 -50 -1 -54 -8 -8 16 -67
38 -94 57 -68 89 -101 112 -113 78 -42 153 -76 211 -96 36 -12 75 -27 87 -33
18 -8 27 -7 43 8 19 18 20 17 20 -2 0 -12 15 -32 35 -47 71 -54 36 -115 -71
-124 -30 -3 -54 -9 -54 -16 0 -6 -5 -3 -11 7 -6 10 -22 17 -42 17 -26 0 -43
10 -82 50 l-49 50 -116 0 c-112 0 -117 -1 -129 -23 -10 -19 -10 -34 4 -82 14
-46 29 -70 75 -117 33 -33 66 -58 78 -58 11 0 22 -5 24 -11 5 -15 168 -59 168
-45 0 6 4 5 9 -3 9 -15 134 -20 226 -9 90 11 217 75 237 120 7 15 21 29 31 32
11 2 16 9 13 14 -3 6 -1 12 5 14 16 5 37 108 33 164 -3 47 -39 142 -66 174
-66 77 -280 190 -330 174 -12 -3 -18 0 -18 9 0 10 -7 13 -20 10 -11 -3 -20 -1
-20 4 0 12 -44 33 -68 33 -10 0 -28 13 -42 29 -13 17 -27 28 -32 25 -13 -8 -9
21 5 35 10 11 10 13 0 7 -8 -4 -13 -1 -13 7 0 10 7 13 20 10 14 -4 20 0 20 11
0 12 9 16 34 16 19 0 42 7 50 16 9 9 16 11 16 4 0 -6 8 -10 18 -9 37 5 111
-40 144 -86 34 -48 43 -51 138 -45 19 1 57 3 84 4 45 1 50 4 59 29 11 33 -14
127 -39 148 -8 6 -14 16 -14 21 0 5 -9 21 -20 35 -11 14 -20 23 -20 19 0 -4
-10 4 -22 17 -13 13 -45 32 -73 42 -27 10 -59 25 -71 32 -11 7 -45 15 -75 18
-30 3 -66 8 -81 11 -14 3 -29 1 -32 -5 -5 -7 -15 -7 -32 -1 -31 12 -31 12 -39
-1z m95 -63 c0 -3 -4 -8 -10 -11 -5 -3 -10 -1 -10 4 0 6 5 11 10 11 6 0 10 -2
10 -4z m-149 -77 c-9 -22 -10 -22 -10 -3 -1 11 2 24 6 27 12 12 14 0 4 -24z
m169 16 c11 -13 10 -14 -4 -9 -9 3 -16 10 -16 15 0 13 6 11 20 -6z m80 1 c0
-11 -19 -15 -25 -6 -3 5 1 10 9 10 9 0 16 -2 16 -4z m-360 -16 c0 -5 -4 -10
-10 -10 -5 0 -10 5 -10 10 0 6 5 10 10 10 6 0 10 -4 10 -10z m-45 -20 c3 -5 1
-10 -4 -10 -6 0 -11 5 -11 10 0 6 2 10 4 10 3 0 8 -4 11 -10z m235 6 c0 -3 -4
-8 -10 -11 -5 -3 -10 -1 -10 4 0 6 5 11 10 11 6 0 10 -2 10 -4z m-150 -10 c0
-3 -4 -8 -10 -11 -5 -3 -10 -1 -10 4 0 6 5 11 10 11 6 0 10 -2 10 -4z m105 -6
c3 -5 1 -10 -4 -10 -6 0 -11 5 -11 10 0 6 2 10 4 10 3 0 8 -4 11 -10z m222
-12 c-3 -8 -6 -5 -6 6 -1 11 2 17 5 13 3 -3 4 -12 1 -19z m128 12 c3 -5 1 -10
-4 -10 -6 0 -11 5 -11 10 0 6 2 10 4 10 3 0 8 -4 11 -10z m-495 -9 c0 -6 -4
-13 -10 -16 -5 -3 -10 1 -10 9 0 9 5 16 10 16 6 0 10 -4 10 -9z m220 -1 c0 -5
-5 -10 -11 -10 -5 0 -7 5 -4 10 3 6 8 10 11 10 2 0 4 -4 4 -10z m-279 -27 c-8
-15 -10 -15 -11 -2 0 17 10 32 18 25 2 -3 -1 -13 -7 -23z m389 12 c0 -8 -2
-15 -4 -15 -2 0 -6 7 -10 15 -3 8 -1 15 4 15 6 0 10 -7 10 -15z m-300 -5 c0
-5 -5 -10 -11 -10 -5 0 -7 5 -4 10 3 6 8 10 11 10 2 0 4 -4 4 -10z m25 0 c3
-5 1 -10 -4 -10 -6 0 -11 5 -11 10 0 6 2 10 4 10 3 0 8 -4 11 -10z m117 -12
c-7 -7 -12 -8 -12 -2 0 14 12 26 19 19 2 -3 -1 -11 -7 -17z m108 12 c0 -5 -5
-10 -11 -10 -5 0 -7 5 -4 10 3 6 8 10 11 10 2 0 4 -4 4 -10z m-272 -28 c2 -7
-2 -10 -12 -6 -11 4 -16 1 -16 -10 0 -9 -7 -16 -15 -16 -18 0 -19 4 -2 30 13
22 38 23 45 2z m92 -1 c0 -5 -7 -11 -14 -14 -10 -4 -13 -1 -9 9 6 15 23 19 23
5z m25 -21 c3 -5 1 -10 -4 -10 -6 0 -11 5 -11 10 0 6 2 10 4 10 3 0 8 -4 11
-10z m-197 -18 c2 -7 -3 -12 -12 -12 -9 0 -16 7 -16 16 0 17 22 14 28 -4z
m122 8 c0 -5 -2 -10 -4 -10 -3 0 -8 5 -11 10 -3 6 -1 10 4 10 6 0 11 -4 11
-10z m-80 -25 c0 -8 -7 -15 -15 -15 -9 0 -12 6 -9 15 4 8 10 15 15 15 5 0 9
-7 9 -15z m-40 -20 c10 -12 9 -15 -7 -15 -11 0 -20 7 -20 15 0 8 4 15 7 15 4
0 13 -7 20 -15z m145 -5 c3 -5 1 -10 -4 -10 -6 0 -11 5 -11 10 0 6 2 10 4 10
3 0 8 -4 11 -10z m-99 -20 c8 0 14 -7 14 -15 0 -8 -2 -15 -4 -15 -10 0 -36 32
-35 43 0 9 2 8 6 0 2 -7 11 -13 19 -13z m54 10 c0 -5 -4 -10 -10 -10 -5 0 -10
5 -10 10 0 6 5 10 10 10 6 0 10 -4 10 -10z m-120 -14 c0 -3 -4 -8 -10 -11 -5
-3 -10 -1 -10 4 0 6 5 11 10 11 6 0 10 -2 10 -4z m155 -23 c-5 -10 -7 -21 -7
-25 1 -5 -3 -8 -9 -8 -6 0 -9 7 -5 15 7 20 -3 19 -26 -2 -17 -15 -18 -15 -18
0 0 10 14 23 33 31 37 15 42 14 32 -11z m-125 -3 c0 -5 -2 -10 -4 -10 -3 0 -8
5 -11 10 -3 6 -1 10 4 10 6 0 11 -4 11 -10z m-35 -20 c3 -5 2 -10 -4 -10 -5 0
-13 5 -16 10 -3 6 -2 10 4 10 5 0 13 -4 16 -10z m75 -10 c0 -11 -6 -20 -14
-20 -9 0 -12 7 -9 20 3 11 9 20 14 20 5 0 9 -9 9 -20z m-48 -22 c-7 -7 -12 -8
-12 -2 0 14 12 26 19 19 2 -3 -1 -11 -7 -17z m153 12 c3 -5 1 -10 -4 -10 -6 0
-11 5 -11 10 0 6 2 10 4 10 3 0 8 -4 11 -10z m-42 -42 c-6 -35 -11 -44 -17
-37 -7 8 6 69 15 69 5 0 6 -15 2 -32z m-45 2 c4 -12 3 -13 -10 -3 -8 7 -18 10
-21 6 -4 -3 -7 -1 -7 6 0 17 32 10 38 -9z m-48 -16 c0 -14 -3 -14 -15 -4 -8 7
-15 14 -15 16 0 2 7 4 15 4 8 0 15 -7 15 -16z m170 -4 c0 -5 -5 -10 -11 -10
-5 0 -7 5 -4 10 3 6 8 10 11 10 2 0 4 -4 4 -10z m70 -11 c0 -5 -4 -9 -10 -9
-5 0 -10 7 -10 16 0 8 5 12 10 9 6 -3 10 -10 10 -16z m-40 -19 c0 -5 -2 -10
-4 -10 -3 0 -8 5 -11 10 -3 6 -1 10 4 10 6 0 11 -4 11 -10z m-50 -10 c0 -5 -2
-10 -4 -10 -3 0 -8 5 -11 10 -3 6 -1 10 4 10 6 0 11 -4 11 -10z m88 -1 c-2 -6
-8 -10 -13 -10 -5 0 -11 4 -13 10 -2 6 4 11 13 11 9 0 15 -5 13 -11z m77 1
c-3 -5 1 -10 9 -10 8 0 18 5 21 10 8 13 35 13 35 1 0 -5 -10 -12 -22 -14 l-23
-4 22 -8 c12 -4 19 -13 17 -20 -4 -11 -11 -10 -35 3 -25 15 -31 15 -38 3 -7
-12 -13 -12 -24 -3 -7 7 -17 9 -20 5 -4 -3 -7 -1 -7 5 0 7 8 12 19 12 10 0 24
7 31 15 14 17 24 20 15 5z m-215 -4 c0 -3 -4 -8 -10 -11 -5 -3 -10 -1 -10 4 0
6 5 11 10 11 6 0 10 -2 10 -4z m94 -15 c3 -5 -1 -11 -9 -15 -15 -6 -29 7 -18
18 9 9 21 8 27 -3z m-58 -28 c-10 -10 -19 5 -10 18 6 11 8 11 12 0 2 -7 1 -15
-2 -18z m-36 -3 c0 -5 -5 -10 -11 -10 -5 0 -7 5 -4 10 3 6 8 10 11 10 2 0 4
-4 4 -10z m155 -26 l-15 -29 0 27 c0 14 6 28 13 31 18 7 19 3 2 -29z m225 26
c0 -5 -4 -10 -10 -10 -5 0 -10 5 -10 10 0 6 5 10 10 10 6 0 10 -4 10 -10z
m-140 -10 c0 -5 -12 -10 -26 -10 -14 0 -23 4 -19 10 3 6 15 10 26 10 10 0 19
-4 19 -10z m-130 -10 c0 -5 -4 -10 -10 -10 -5 0 -10 5 -10 10 0 6 5 10 10 10
6 0 10 -4 10 -10z m220 0 c0 -5 -4 -10 -10 -10 -5 0 -10 5 -10 10 0 6 5 10 10
10 6 0 10 -4 10 -10z m-273 -22 c-3 -8 -6 -5 -6 6 -1 11 2 17 5 13 3 -3 4 -12
1 -19z m237 -9 c-8 -14 -24 -10 -24 6 0 9 6 12 15 9 8 -4 12 -10 9 -15z m76 5
c0 -8 -4 -12 -10 -9 -5 3 -10 10 -10 16 0 5 5 9 10 9 6 0 10 -7 10 -16z m-159
-25 c-8 -22 -10 -22 -16 -5 -5 11 -3 21 6 26 19 12 21 7 10 -21z m37 3 c-4
-15 1 -18 28 -18 20 1 34 6 34 14 0 6 10 11 23 11 16 -1 17 -3 5 -6 -9 -2 -19
-12 -22 -21 -4 -12 -18 -17 -46 -18 -37 -1 -40 1 -40 28 0 15 5 28 11 28 6 0
9 -8 7 -18z m222 8 c0 -5 -5 -10 -11 -10 -5 0 -7 5 -4 10 3 6 8 10 11 10 2 0
4 -4 4 -10z m-310 -40 c0 -5 -7 -7 -15 -4 -8 4 -15 8 -15 10 0 2 7 4 15 4 8 0
15 -4 15 -10z m194 -2 c-5 -7 0 -9 14 -6 15 4 19 2 15 -8 -3 -8 -14 -14 -24
-14 -32 0 -23 -34 13 -48 17 -6 29 -14 26 -18 -3 -3 -20 2 -37 11 -22 11 -31
23 -31 39 0 31 10 56 22 56 5 0 6 -5 2 -12z m171 -28 c3 -5 1 -10 -4 -10 -6 0
-11 5 -11 10 0 6 2 10 4 10 3 0 8 -4 11 -10z m-124 -27 c13 -17 13 -17 -6 -3
-11 8 -22 16 -24 17 -2 2 0 3 6 3 6 0 17 -8 24 -17z m44 -13 c3 -5 -1 -10 -9
-10 -9 0 -16 5 -16 10 0 6 4 10 9 10 6 0 13 -4 16 -10z m57 -33 c10 -20 10
-21 -5 -8 -9 7 -24 11 -32 7 -18 -6 -20 5 -3 22 14 14 24 8 40 -21z m-62 -7
c0 -5 -4 -10 -10 -10 -5 0 -10 5 -10 10 0 6 5 10 10 10 6 0 10 -4 10 -10z
m110 -20 c0 -5 -7 -7 -15 -4 -8 4 -15 8 -15 10 0 2 7 4 15 4 8 0 15 -4 15 -10z
m-125 -20 c3 -5 1 -10 -4 -10 -6 0 -11 5 -11 10 0 6 2 10 4 10 3 0 8 -4 11
-10z m85 -5 c0 -8 -2 -15 -4 -15 -2 0 -6 7 -10 15 -3 8 -1 15 4 15 6 0 10 -7
10 -15z m-50 -9 c0 -8 -4 -18 -10 -21 -5 -3 -10 3 -10 14 0 12 5 21 10 21 6 0
10 -6 10 -14z m-49 -19 c-1 -12 -15 -9 -19 4 -3 6 1 10 8 8 6 -3 11 -8 11 -12z
m122 6 c-7 -2 -13 -14 -13 -26 0 -16 -3 -18 -12 -9 -13 13 6 43 26 41 7 0 6
-2 -1 -6z m-83 -31 c0 -4 -9 -13 -20 -20 -23 -14 -26 -8 -7 13 13 16 27 19 27
7z m110 -12 c0 -5 -4 -10 -10 -10 -5 0 -10 5 -10 10 0 6 5 10 10 10 6 0 10 -4
10 -10z m-46 -25 c-4 -8 -8 -15 -10 -15 -2 0 -4 7 -4 15 0 8 4 15 10 15 5 0 7
-7 4 -15z m-88 -42 c-10 -10 -19 5 -10 18 6 11 8 11 12 0 2 -7 1 -15 -2 -18z
m59 17 c3 -5 -1 -10 -9 -10 -9 0 -16 5 -16 10 0 6 4 10 9 10 6 0 13 -4 16 -10z
m-95 -26 c0 -9 -5 -14 -12 -12 -18 6 -21 28 -4 28 9 0 16 -7 16 -16z m-231 -1
c0 -5 -4 -17 -9 -28 -8 -17 -8 -16 -7 8 1 15 5 27 9 27 4 0 8 -3 7 -7z m376
-3 c3 -5 1 -10 -4 -10 -6 0 -11 5 -11 10 0 6 2 10 4 10 3 0 8 -4 11 -10z
m-510 -40 c3 -5 1 -10 -4 -10 -6 0 -11 5 -11 10 0 6 2 10 4 10 3 0 8 -4 11
-10z m-1 -45 c-4 -8 -8 -15 -10 -15 -2 0 -4 7 -4 15 0 8 4 15 10 15 5 0 7 -7
4 -15z m286 -45 c0 -5 -2 -10 -4 -10 -3 0 -8 5 -11 10 -3 6 -1 10 4 10 6 0 11
-4 11 -10z m-45 -10 c3 -5 1 -10 -4 -10 -6 0 -11 5 -11 10 0 6 2 10 4 10 3 0
8 -4 11 -10z m-208 -6 c-3 -3 -12 -4 -19 -1 -8 3 -5 6 6 6 11 1 17 -2 13 -5z"/>
<path d="M22380 6113 c-81 -12 -90 -14 -83 -26 4 -7 0 -6 -10 2 -15 12 -20 12
-35 -2 -9 -9 -29 -18 -44 -21 -34 -6 -71 -25 -81 -42 -4 -8 -14 -14 -22 -14
-39 0 -201 -196 -190 -230 4 -12 -1 -19 -15 -23 -13 -3 -20 -13 -20 -29 0 -13
-5 -29 -12 -36 -9 -9 -9 -12 1 -12 11 0 11 -3 0 -16 -19 -23 -28 -119 -17
-189 11 -76 38 -165 50 -165 5 0 7 -4 4 -9 -14 -23 147 -221 179 -221 7 0 18
-7 25 -15 15 -18 97 -58 165 -81 77 -26 286 -23 329 4 6 3 16 7 21 7 18 2 63
24 69 34 4 6 13 8 21 4 8 -3 15 0 15 7 0 6 -4 8 -10 5 -5 -3 -10 1 -10 11 0
13 3 14 15 4 20 -17 46 -6 38 16 -4 11 -3 15 5 10 38 -23 205 156 205 220 0
13 3 22 7 19 10 -6 37 79 41 128 2 23 -1 41 -9 46 -11 7 -11 11 0 22 8 8 14
35 14 62 1 40 -2 47 -15 42 -12 -5 -13 -3 -5 5 13 13 1 93 -15 98 -6 2 -8 8
-5 14 7 10 -25 80 -39 87 -5 2 -13 14 -18 28 -5 14 -18 27 -28 30 -11 3 -18
10 -15 17 6 14 -90 100 -155 138 -25 15 -62 31 -81 34 -19 4 -48 13 -65 20
-31 12 -161 24 -205 17z m-85 -103 c3 -5 1 -10 -4 -10 -6 0 -11 5 -11 10 0 6
2 10 4 10 3 0 8 -4 11 -10z m-90 -17 c-2 -10 -4 -20 -4 -22 -1 -3 -7 1 -13 7
-10 10 -10 15 2 22 19 12 19 13 15 -7z m-42 -18 c-3 -9 -8 -14 -10 -11 -3 3
-2 9 2 15 9 16 15 13 8 -4z m141 -29 c-8 -33 -20 -33 -26 -1 -4 17 0 25 11 28
22 5 23 3 15 -27z m-74 14 c0 -5 -5 -10 -11 -10 -5 0 -7 5 -4 10 3 6 8 10 11
10 2 0 4 -4 4 -10z m-46 -15 c-9 -23 5 -38 22 -24 12 10 14 8 11 -9 -5 -33
-12 -34 -36 -8 -14 14 -30 22 -40 19 -9 -3 -5 4 9 16 29 24 42 27 34 6z m186
-29 c0 -3 -4 -8 -10 -11 -5 -3 -10 -1 -10 4 0 6 5 11 10 11 6 0 10 -2 10 -4z
m-197 -49 c-3 -5 -10 -4 -16 2 -16 16 -27 14 -27 -5 0 -10 -6 -14 -14 -11 -8
3 -17 1 -20 -6 -3 -9 -5 -9 -5 0 -1 7 8 18 19 25 11 7 20 19 20 26 0 9 7 8 24
-5 13 -10 22 -22 19 -26z m-83 23 c0 -5 -7 -10 -16 -10 -10 0 -14 -6 -10 -15
3 -9 0 -15 -8 -15 -19 0 -27 25 -13 39 14 14 47 15 47 1z m650 -23 c0 -5 -4
-5 -10 -2 -5 3 -10 14 -10 23 0 15 2 15 10 2 5 -8 10 -19 10 -23z m-496 -2
c-4 -8 -10 -15 -15 -15 -4 0 -6 7 -3 15 4 8 10 15 15 15 4 0 6 -7 3 -15z m36
-5 c0 -11 -4 -20 -9 -20 -6 0 -9 9 -8 20 1 11 5 20 9 20 4 0 8 -9 8 -20z m-72
-2 c-2 -6 -10 -14 -16 -16 -7 -2 -10 2 -6 12 7 18 28 22 22 4z m356 -48 c53
-25 126 -93 126 -116 0 -8 4 -14 9 -14 11 0 44 -118 37 -136 -3 -7 -1 -16 3
-19 9 -5 -16 -81 -48 -144 -39 -76 -132 -130 -237 -138 -61 -5 -77 -2 -123 20
-30 14 -61 23 -70 20 -9 -4 -13 -3 -9 2 7 7 -14 34 -29 38 -4 1 -19 22 -32 47
-13 25 -27 47 -30 50 -15 12 -24 111 -17 173 7 54 67 167 89 167 6 0 20 9 31
19 65 61 207 75 300 31z m-413 -1 c9 -17 8 -20 -3 -15 -7 3 -21 9 -30 12 -24
8 -23 24 2 24 10 0 24 -10 31 -21z m41 -4 c-2 -14 -8 -23 -12 -20 -10 6 -1 45
10 45 4 0 5 -11 2 -25z m-182 6 c0 -5 10 -13 22 -17 19 -6 19 -7 5 -16 -10 -5
-17 -15 -17 -23 0 -11 -6 -12 -22 -6 -29 10 -36 31 -9 24 21 -5 29 11 11 22
-5 3 -10 10 -10 16 0 5 5 9 10 9 6 0 10 -4 10 -9z m910 5 c0 -3 -4 -8 -10 -11
-5 -3 -10 -1 -10 4 0 6 5 11 10 11 6 0 10 -2 10 -4z m-817 -53 c-3 -7 -11 -13
-19 -13 -8 0 -23 -15 -35 -32 l-20 -33 7 30 c4 17 10 37 15 46 9 19 59 21 52
2z m57 5 c0 -4 -4 -8 -9 -8 -6 0 -12 4 -15 8 -3 5 1 9 9 9 8 0 15 -4 15 -9z
m-220 -32 c0 -3 -4 -8 -10 -11 -5 -3 -10 -1 -10 4 0 6 5 11 10 11 6 0 10 -2
10 -4z m34 -20 c-6 -16 -24 -23 -24 -8 0 10 22 33 27 28 2 -2 1 -11 -3 -20z
m112 -31 c-9 -9 -20 -13 -26 -10 -15 9 -12 25 5 25 8 0 15 5 15 12 0 9 3 9 11
1 9 -9 8 -16 -5 -28z m-81 -15 c-3 -5 -10 -10 -16 -10 -5 0 -9 5 -9 10 0 6 7
10 16 10 8 0 12 -4 9 -10z m-45 -10 c0 -5 -5 -10 -11 -10 -5 0 -7 5 -4 10 3 6
8 10 11 10 2 0 4 -4 4 -10z m80 -30 c0 -5 -7 -10 -15 -10 -8 0 -15 5 -15 10 0
6 7 10 15 10 8 0 15 -4 15 -10z m970 -31 c0 -3 -10 -4 -23 -2 -13 3 -24 10
-24 17 0 10 6 10 24 2 12 -6 23 -14 23 -17z m-930 1 c0 -5 -5 -10 -11 -10 -5
0 -7 5 -4 10 3 6 8 10 11 10 2 0 4 -4 4 -10z m780 -5 c0 -8 -4 -15 -10 -15 -5
0 -10 7 -10 15 0 8 5 15 10 15 6 0 10 -7 10 -15z m100 -15 c0 -5 -4 -10 -10
-10 -5 0 -10 5 -10 10 0 6 5 10 10 10 6 0 10 -4 10 -10z m-1040 -60 c0 -5 -2
-10 -4 -10 -3 0 -8 5 -11 10 -3 6 -1 10 4 10 6 0 11 -4 11 -10z m85 0 c3 -5 2
-10 -4 -10 -5 0 -13 5 -16 10 -3 6 -2 10 4 10 5 0 13 -4 16 -10z m65 -19 c0
-11 -4 -22 -9 -25 -5 -3 -8 6 -8 19 0 14 3 25 8 25 5 0 9 -9 9 -19z m-120 -1
c0 -5 -5 -10 -11 -10 -5 0 -7 5 -4 10 3 6 8 10 11 10 2 0 4 -4 4 -10z m76 -17
c-10 -10 -19 5 -10 18 6 11 8 11 12 0 2 -7 1 -15 -2 -18z m804 -2 c0 -5 -7
-12 -16 -15 -14 -5 -15 -4 -4 9 14 17 20 19 20 6z m-732 -40 c-16 -5 -29 22
-15 31 7 4 15 0 18 -10 4 -9 2 -19 -3 -21z m-74 14 c3 -9 0 -15 -9 -15 -8 0
-15 7 -15 15 0 8 4 15 9 15 5 0 11 -7 15 -15z m99 -43 c-3 -12 -9 -22 -14 -22
-12 0 -11 7 2 32 13 25 20 19 12 -10z m-97 3 c-3 -8 -1 -15 4 -15 6 0 10 -11
10 -25 0 -26 -18 -35 -24 -12 -16 49 -16 67 0 67 10 0 14 -5 10 -15z m53 1
c10 -12 8 -13 -9 -9 -25 7 -37 23 -17 23 8 0 20 -6 26 -14z m721 4 c0 -5 -2
-10 -4 -10 -3 0 -8 5 -11 10 -3 6 -1 10 4 10 6 0 11 -4 11 -10z m-820 -14 c0
-11 -19 -15 -25 -6 -3 5 1 10 9 10 9 0 16 -2 16 -4z m100 -26 c0 -5 -4 -10
-10 -10 -5 0 -10 5 -10 10 0 6 5 10 10 10 6 0 10 -4 10 -10z m-99 -10 c5 0 9
-10 9 -22 -1 -21 -2 -22 -14 -5 -16 21 -26 22 -26 2 0 -8 -4 -15 -10 -15 -11
0 -13 11 -4 35 4 9 13 14 21 11 8 -3 19 -6 24 -6z m137 -18 c2 -7 -2 -10 -11
-6 -8 3 -18 1 -22 -5 -8 -14 -35 -14 -35 -1 0 6 9 10 20 10 11 0 20 5 20 11 0
14 23 6 28 -9z m712 8 c0 -5 -4 -10 -10 -10 -5 0 -10 5 -10 10 0 6 5 10 10 10
6 0 10 -4 10 -10z m27 -12 c-3 -8 -6 -5 -6 6 -1 11 2 17 5 13 3 -3 4 -12 1
-19z m-795 -28 c15 0 28 -6 29 -12 0 -7 2 -23 3 -35 4 -35 -9 -50 -29 -33 -11
9 -13 15 -4 20 8 6 8 13 0 26 -9 17 -10 17 -11 -5 0 -20 -3 -22 -12 -13 -18
18 -26 15 -31 -10 -3 -22 -4 -22 -12 -4 -6 13 -5 21 3 24 7 2 9 9 5 15 -4 6 0
8 10 4 10 -3 17 -2 17 4 0 5 -7 12 -15 15 -8 4 -12 11 -9 16 4 6 10 6 17 -1 6
-6 24 -11 39 -11z m95 14 c-3 -3 -12 -4 -19 -1 -8 3 -5 6 6 6 11 1 17 -2 13
-5z m5 -29 c8 3 20 -1 27 -9 7 -8 20 -12 28 -9 12 5 14 3 8 -6 -5 -9 -20 -11
-45 -7 -29 4 -39 2 -44 -10 -3 -8 -11 -12 -17 -8 -8 4 -7 9 2 15 11 6 10 12
-4 27 -21 23 -10 38 13 17 10 -9 24 -13 32 -10z m-174 -4 c3 -8 -1 -12 -9 -9
-7 2 -15 10 -17 17 -3 8 1 12 9 9 7 -2 15 -10 17 -17z m752 -29 c0 -5 -7 -9
-15 -9 -8 0 -15 4 -15 9 0 4 7 8 15 8 8 0 15 -4 15 -8z m-581 -35 c-7 -16 -17
-23 -26 -20 -9 4 -16 -2 -20 -16 -6 -23 -19 -28 -26 -8 -3 9 -7 9 -20 -2 -15
-12 -17 -11 -17 7 0 12 5 24 10 27 6 3 10 1 10 -4 0 -6 7 -11 15 -11 8 0 15 7
15 15 0 8 8 15 19 15 10 0 24 7 31 15 18 22 23 12 9 -18z m81 13 c0 -5 -2 -10
-4 -10 -3 0 -8 5 -11 10 -3 6 -1 10 4 10 6 0 11 -4 11 -10z m-190 -15 c0 -8
-7 -15 -15 -15 -8 0 -15 7 -15 15 0 8 7 15 15 15 8 0 15 -7 15 -15z m710 5 c0
-5 -2 -10 -4 -10 -3 0 -8 5 -11 10 -3 6 -1 10 4 10 6 0 11 -4 11 -10z m30 -18
c0 -15 -2 -15 -10 -2 -13 20 -13 33 0 25 6 -3 10 -14 10 -23z m-610 -27 c0 -8
-4 -15 -10 -15 -5 0 -10 7 -10 15 0 8 5 15 10 15 6 0 10 -7 10 -15z m450 -11
c0 -22 -16 -17 -17 6 -1 11 2 18 8 15 5 -4 9 -13 9 -21z m-469 -46 c-10 -23
-10 -23 -10 -1 -1 12 -5 25 -11 28 -5 3 -10 14 -10 22 0 14 4 13 20 -5 15 -16
18 -26 11 -44z m99 55 c-1 -22 -19 -35 -36 -28 -17 8 -17 9 4 12 12 3 20 9 17
14 -4 5 -1 9 4 9 6 0 11 -3 11 -7z m-150 -32 c0 -5 -7 -11 -15 -15 -9 -3 -15
0 -15 9 0 8 7 15 15 15 8 0 15 -4 15 -9z m284 -6 c-4 -8 -8 -15 -10 -15 -2 0
-4 7 -4 15 0 8 4 15 10 15 5 0 7 -7 4 -15z m-186 -14 c3 -8 -1 -12 -9 -9 -7 2
-15 10 -17 17 -3 8 1 12 9 9 7 -2 15 -10 17 -17z m512 4 c-7 -9 -15 -13 -19
-10 -3 3 1 10 9 15 21 14 24 12 10 -5z m90 -15 c0 -5 -5 -10 -11 -10 -5 0 -7
5 -4 10 3 6 8 10 11 10 2 0 4 -4 4 -10z m-123 -16 c-3 -3 -12 -4 -19 -1 -8 3
-5 6 6 6 11 1 17 -2 13 -5z m-387 -18 c0 -3 -4 -8 -10 -11 -5 -3 -10 -1 -10 4
0 6 5 11 10 11 6 0 10 -2 10 -4z m350 -6 c0 -5 -2 -10 -4 -10 -3 0 -8 5 -11
10 -3 6 -1 10 4 10 6 0 11 -4 11 -10z m-120 -10 c0 -5 -5 -10 -11 -10 -5 0 -7
5 -4 10 3 6 8 10 11 10 2 0 4 -4 4 -10z m-94 -25 c10 -8 14 -15 7 -15 -6 0
-15 5 -18 10 -4 6 -11 8 -16 5 -5 -4 -9 -1 -9 4 0 15 13 14 36 -4z m228 -1 c3
-8 2 -12 -4 -9 -6 3 -10 10 -10 16 0 14 7 11 14 -7z m-34 -4 c0 -5 -5 -10 -11
-10 -5 0 -7 5 -4 10 3 6 8 10 11 10 2 0 4 -4 4 -10z m-30 -4 c0 -3 -4 -8 -10
-11 -5 -3 -10 -1 -10 4 0 6 5 11 10 11 6 0 10 -2 10 -4z m-195 -16 c3 -5 2
-10 -4 -10 -5 0 -13 5 -16 10 -3 6 -2 10 4 10 5 0 13 -4 16 -10z m105 -16 c0
-2 -7 -4 -15 -4 -8 0 -15 4 -15 10 0 5 7 7 15 4 8 -4 15 -8 15 -10z"/>
<path d="M26438 6115 c-2 -2 -19 -6 -39 -9 -101 -16 -250 -90 -319 -158 -56
-56 -112 -136 -124 -178 -4 -14 -15 -41 -24 -60 -30 -63 -20 -373 11 -362 16
5 21 1 9 -7 -11 -7 -11 -11 2 -24 9 -8 16 -23 16 -32 0 -14 17 -40 70 -109 61
-78 136 -131 250 -176 80 -32 92 -34 211 -35 79 0 135 4 150 12 13 7 49 22 79
35 72 30 125 66 181 125 110 115 115 141 35 178 -30 14 -64 25 -75 25 -11 0
-26 7 -35 15 -8 8 -26 19 -40 25 -23 8 -31 4 -82 -45 -31 -30 -62 -55 -69 -55
-18 0 -28 -17 -13 -22 14 -5 4 -38 -12 -38 -5 0 -10 8 -10 19 0 16 -5 17 -52
10 -183 -30 -336 86 -358 270 -8 57 -6 72 17 128 38 96 122 165 231 190 78 19
200 -25 272 -97 55 -55 53 -55 226 26 29 13 54 31 58 39 7 18 -33 85 -51 85
-6 0 -15 9 -18 20 -4 11 -10 18 -15 15 -4 -3 -7 3 -6 13 0 9 -6 17 -14 17 -8
0 -23 12 -32 28 -10 15 -25 27 -33 27 -9 0 -18 7 -21 15 -4 8 -11 15 -18 15
-6 0 -29 9 -51 20 -68 35 -106 44 -116 29 -7 -12 -9 -12 -9 0 0 11 -4 9 -15
-5 -14 -19 -14 -19 -15 2 0 16 -6 22 -22 23 -13 0 -46 2 -75 5 -28 2 -53 3
-55 1z m117 -45 c3 -5 1 -10 -4 -10 -6 0 -11 5 -11 10 0 6 2 10 4 10 3 0 8 -4
11 -10z m135 -50 c0 -5 -4 -10 -10 -10 -5 0 -10 5 -10 10 0 6 5 10 10 10 6 0
10 -4 10 -10z m105 0 c-3 -5 -12 -10 -18 -10 -7 0 -6 4 3 10 19 12 23 12 15 0z
m-215 -10 c0 -5 -2 -10 -4 -10 -3 0 -8 5 -11 10 -3 6 -1 10 4 10 6 0 11 -4 11
-10z m-113 -27 c-10 -22 -13 -24 -15 -9 -2 10 2 22 10 27 19 12 19 12 5 -18z
m73 17 c0 -5 -4 -10 -10 -10 -5 0 -10 5 -10 10 0 6 5 10 10 10 6 0 10 -4 10
-10z m120 6 c0 -11 -19 -15 -25 -6 -3 5 1 10 9 10 9 0 16 -2 16 -4z m-229 -35
c7 11 9 10 9 -4 0 -25 -34 -18 -38 8 -3 19 -2 19 9 1 9 -15 13 -16 20 -5z
m-134 -7 c-3 -3 -12 -4 -19 -1 -8 3 -5 6 6 6 11 1 17 -2 13 -5z m273 -4 c0 -5
-7 -10 -15 -10 -8 0 -15 5 -15 10 0 6 7 10 15 10 8 0 15 -4 15 -10z m-320 -4
c0 -3 -4 -8 -10 -11 -5 -3 -10 -1 -10 4 0 6 5 11 10 11 6 0 10 -2 10 -4z m-50
-15 c0 -5 -7 -11 -14 -14 -10 -4 -13 -1 -9 9 6 15 23 19 23 5z m106 -38 c-2
-3 -15 5 -28 17 -13 13 -18 20 -13 17 6 -3 17 -2 25 3 11 7 16 4 18 -11 2 -11
1 -23 -2 -26z m39 37 c-3 -5 -11 -10 -16 -10 -6 0 -7 5 -4 10 3 6 11 10 16 10
6 0 7 -4 4 -10z m45 6 c0 -11 -19 -15 -25 -6 -3 5 1 10 9 10 9 0 16 -2 16 -4z
m465 -26 c-6 -9 -9 -9 -16 1 -10 17 0 34 13 21 6 -6 7 -16 3 -22z m-405 -24
c0 -9 -4 -16 -10 -16 -5 0 -10 9 -10 20 0 11 -5 20 -11 20 -5 0 -7 5 -4 10 8
13 35 -13 35 -34z m40 40 c0 -3 -4 -8 -10 -11 -5 -3 -10 -1 -10 4 0 6 5 11 10
11 6 0 10 -2 10 -4z m-90 -25 c0 -14 -5 -18 -20 -14 -25 7 -26 20 -2 26 9 3
18 5 20 6 1 0 2 -8 2 -18z m410 9 c0 -5 -2 -10 -4 -10 -3 0 -8 5 -11 10 -3 6
-1 10 4 10 6 0 11 -4 11 -10z m-537 -13 c4 3 7 -1 7 -10 0 -9 -5 -19 -12 -23
-6 -4 -8 -3 -5 3 4 6 0 13 -8 17 -8 3 -15 11 -15 17 0 8 4 9 13 0 8 -6 17 -8
20 -4z m-59 -13 c9 -22 -3 -32 -14 -14 -12 19 -12 30 -1 30 5 0 12 -7 15 -16z
m150 -19 c-8 -20 -20 -19 -28 1 -11 28 -7 35 14 24 11 -6 17 -16 14 -25z m509
12 c3 -8 2 -19 -3 -26 -5 -9 -9 -4 -12 13 -5 27 6 36 15 13z m-736 -33 c-9 -9
-28 6 -21 18 4 6 10 6 17 -1 6 -6 8 -13 4 -17z m113 18 c0 -9 -44 -32 -58 -32
-9 1 41 39 51 40 4 0 7 -4 7 -8z m660 -13 c0 -18 -2 -19 -15 -9 -15 12 -12 30
6 30 5 0 9 -10 9 -21z m-750 -29 c0 -5 -4 -10 -10 -10 -5 0 -10 5 -10 10 0 6
5 10 10 10 6 0 10 -4 10 -10z m90 -11 c0 -6 -4 -8 -9 -5 -5 4 -11 0 -14 -6 -2
-7 -8 -10 -12 -6 -9 8 17 38 28 31 4 -2 7 -9 7 -14z m17 -11 c-3 -8 -6 -5 -6
6 -1 11 2 17 5 13 3 -3 4 -12 1 -19z m-210 -23 c-9 -8 -22 -15 -30 -15 -9 0
-18 -5 -20 -10 -3 -6 -4 -5 -3 2 2 12 58 48 65 42 2 -2 -4 -10 -12 -19z m133
-10 c10 -12 10 -15 -4 -15 -9 0 -16 7 -16 15 0 8 2 15 4 15 2 0 9 -7 16 -15z
m-48 -30 c-2 -15 0 -25 7 -25 6 0 11 -7 11 -15 0 -14 -3 -14 -24 0 -22 14 -23
20 -14 46 12 34 27 30 20 -6z m-77 -17 c16 -52 14 -74 -5 -86 -19 -11 -28 -3
-13 11 3 4 8 19 9 33 3 26 2 26 -15 8 -10 -11 -16 -25 -13 -31 5 -15 -17 -17
-38 -3 -11 7 -9 11 13 19 15 6 28 16 28 23 1 7 2 18 4 23 1 6 3 13 3 18 4 15
20 6 27 -15z m122 15 c-4 -3 0 -11 7 -17 12 -9 11 -14 -5 -30 -10 -11 -19 -14
-19 -8 0 6 5 14 11 18 8 4 4 13 -12 25 l-24 19 24 0 c13 0 21 -3 18 -7z m-217
-43 c0 -5 -4 -10 -10 -10 -5 0 -10 5 -10 10 0 6 5 10 10 10 6 0 10 -4 10 -10z
m134 -6 c3 -8 2 -12 -4 -9 -6 3 -10 10 -10 16 0 14 7 11 14 -7z m56 -29 c0 -9
-6 -12 -15 -9 -8 4 -12 10 -9 15 8 14 24 10 24 -6z m-25 -29 c20 -8 20 -8 1
-15 -13 -5 -16 -10 -8 -15 6 -3 8 -14 5 -24 -6 -15 -5 -15 8 -2 9 9 18 22 22
30 4 11 6 11 6 -3 1 -11 -9 -27 -21 -38 -20 -16 -21 -20 -8 -29 13 -8 12 -10
-5 -10 -17 0 -17 -2 -5 -10 11 -7 6 -9 -18 -6 -19 2 -39 9 -45 15 -19 19 -29
12 -23 -15 5 -17 3 -23 -4 -19 -5 3 -10 -1 -10 -9 0 -9 -4 -16 -10 -16 -5 0
-10 -6 -10 -14 0 -9 -7 -12 -20 -9 -21 6 -27 28 -10 38 6 3 10 -2 11 -12 0
-14 2 -15 6 -3 3 8 13 21 22 28 13 10 13 14 2 21 -10 6 -10 10 -1 16 7 4 9 17
5 32 -4 16 -2 22 5 18 5 -3 10 -12 10 -19 0 -8 8 -16 18 -19 9 -2 25 -8 35
-12 13 -6 16 -3 11 9 -3 9 -10 16 -15 16 -6 0 -20 9 -31 20 -20 18 -21 22 -6
36 13 13 20 14 38 4 20 -11 21 -10 11 9 -16 28 -14 51 2 30 7 -8 21 -19 32
-23z m-180 14 c3 -5 1 -10 -4 -10 -6 0 -11 5 -11 10 0 6 2 10 4 10 3 0 8 -4
11 -10z m61 -23 c16 6 19 -12 4 -22 -12 -8 -42 20 -32 29 4 4 8 3 10 -3 2 -5
10 -7 18 -4z m-36 -38 c0 -5 -4 -9 -10 -9 -5 0 -10 7 -10 16 0 8 5 12 10 9 6
-3 10 -10 10 -16z m30 -19 c0 -5 -2 -10 -4 -10 -3 0 -8 5 -11 10 -3 6 -1 10 4
10 6 0 11 -4 11 -10z m-16 -26 c4 -9 4 -19 1 -22 -3 -3 -5 0 -5 6 0 7 -7 12
-16 12 -8 0 -12 5 -9 10 9 15 22 12 29 -6z m191 -54 c3 -5 1 -10 -4 -10 -6 0
-11 5 -11 10 0 6 2 10 4 10 3 0 8 -4 11 -10z m-42 -16 c-7 -18 -30 -19 -30 -1
0 7 8 14 18 14 12 1 16 -3 12 -13z m-208 -24 c3 -5 1 -10 -4 -10 -6 0 -11 5
-11 10 0 6 2 10 4 10 3 0 8 -4 11 -10z m139 -6 c9 -24 7 -27 -9 -10 -17 17
-19 26 -6 26 5 0 12 -7 15 -16z m-29 -24 c3 -5 1 -10 -4 -10 -6 0 -11 5 -11
10 0 6 2 10 4 10 3 0 8 -4 11 -10z m85 1 c0 -5 -7 -11 -15 -15 -15 -5 -20 5
-8 17 9 10 23 9 23 -2z m-115 -10 c-3 -5 -1 -12 5 -16 5 -3 10 -11 10 -16 0
-5 -11 -2 -25 7 -30 20 -32 34 -4 34 11 0 18 -4 14 -9z m46 -34 c-8 -8 -11 -7
-11 4 0 20 13 34 18 19 3 -7 -1 -17 -7 -23z m80 3 c25 0 -3 -16 -31 -18 -27
-2 -29 0 -18 12 7 9 19 13 26 11 8 -3 18 -5 23 -5z m-101 -41 c0 -6 -4 -7 -10
-4 -5 3 -10 11 -10 16 0 6 5 7 10 4 6 -3 10 -11 10 -16z m85 -68 c-3 -6 -11
-11 -17 -11 -6 0 -6 6 2 15 14 17 26 13 15 -4z m45 -1 c0 -5 -2 -10 -4 -10 -3
0 -8 5 -11 10 -3 6 -1 10 4 10 6 0 11 -4 11 -10z m90 -10 c0 -5 -4 -10 -10
-10 -5 0 -10 5 -10 10 0 6 5 10 10 10 6 0 10 -4 10 -10z m474 -5 c-7 -16 -24
-21 -24 -6 0 8 7 13 27 20 1 1 0 -6 -3 -14z m115 -16 c-19 -12 -39 -11 -39 2
0 6 6 9 14 6 8 -3 17 2 21 11 6 13 8 14 12 3 3 -7 -1 -17 -8 -22z m-59 -9 c0
-5 -5 -10 -11 -10 -5 0 -7 5 -4 10 3 6 8 10 11 10 2 0 4 -4 4 -10z m-613 -42
c-3 -8 -6 -5 -6 6 -1 11 2 17 5 13 3 -3 4 -12 1 -19z m679 -3 c14 -13 13 -15
-5 -15 -12 0 -21 6 -21 15 0 8 3 15 6 15 3 0 12 -7 20 -15z m-166 -26 c0 -17
-4 -28 -10 -24 -5 3 -8 16 -6 28 6 28 5 27 11 27 3 0 5 -14 5 -31z m70 -9 c0
-5 -4 -10 -10 -10 -5 0 -10 5 -10 10 0 6 5 10 10 10 6 0 10 -4 10 -10z m72
-12 c-7 -7 -12 -8 -12 -2 0 14 12 26 19 19 2 -3 -1 -11 -7 -17z m-112 2 c0 -5
-5 -10 -11 -10 -5 0 -7 5 -4 10 3 6 8 10 11 10 2 0 4 -4 4 -10z m-374 -98 c-9
-9 -37 8 -31 18 5 8 11 7 21 -1 8 -6 12 -14 10 -17z"/>
<path d="M26071 5603 c-1 -13 1 -23 3 -23 2 0 12 -3 22 -7 11 -4 15 -3 11 4
-4 6 -1 14 5 16 7 3 3 6 -9 6 -12 1 -24 7 -26 14 -3 6 -6 2 -6 -10z"/>
<path d="M28810 6113 c-77 -10 -90 -14 -83 -26 4 -7 0 -6 -10 2 -15 12 -20 12
-35 -2 -9 -9 -28 -18 -42 -20 -34 -7 -80 -28 -80 -38 0 -4 -16 -16 -35 -25
-19 -9 -45 -28 -58 -41 -12 -14 -30 -33 -39 -43 -37 -41 -89 -124 -84 -137 3
-7 -4 -17 -14 -23 -11 -6 -20 -21 -20 -35 0 -13 -6 -26 -12 -29 -10 -5 -10 -7
-1 -12 10 -4 9 -9 -2 -21 -14 -13 -18 -42 -19 -143 -1 -62 37 -210 55 -210 3
0 6 -6 6 -13 0 -40 145 -217 178 -217 7 0 18 -6 24 -14 37 -45 189 -97 291
-101 74 -3 183 9 204 23 6 3 16 7 21 8 23 4 63 23 69 33 4 6 13 8 21 4 8 -3
15 0 15 7 0 6 -4 8 -10 5 -5 -3 -10 1 -10 11 0 13 3 14 15 4 20 -17 46 -6 38
16 -4 11 -3 15 5 10 37 -23 205 157 205 220 0 13 3 21 8 19 9 -6 24 45 35 119
5 36 3 51 -7 57 -12 8 -11 12 3 22 11 9 16 24 13 43 -2 16 -4 37 -4 47 -1 10
-5 15 -11 12 -5 -3 -10 -2 -10 4 0 5 6 12 13 14 6 3 7 6 1 6 -6 1 -9 13 -6 29
2 16 -2 35 -10 43 -8 8 -19 33 -26 56 -7 23 -17 45 -23 49 -6 3 -15 17 -20 31
-5 14 -18 27 -29 30 -11 3 -20 12 -20 19 0 34 -137 139 -215 164 -22 7 -58 19
-80 26 -40 14 -158 23 -205 17z m-85 -103 c3 -5 -1 -10 -9 -10 -9 0 -16 5 -16
10 0 6 4 10 9 10 6 0 13 -4 16 -10z m-91 -31 c-6 -11 -24 -2 -24 11 0 5 7 7
15 4 8 -4 12 -10 9 -15z m106 -16 c0 -5 -7 -16 -14 -26 -13 -16 -14 -16 -18 8
-4 19 -1 25 13 25 11 0 19 -3 19 -7z m-124 -42 c3 -11 7 -11 19 -1 15 12 16 5
6 -38 -1 -2 -13 6 -27 17 -15 12 -34 21 -43 21 -12 0 -9 6 9 20 17 13 26 15
28 7 2 -7 6 -18 8 -26z m-13 -53 c-2 -4 -15 -1 -28 8 -14 9 -22 20 -19 25 3 5
16 1 29 -8 12 -10 21 -21 18 -25z m-83 22 c0 -5 -10 -10 -21 -10 -18 0 -19 -2
-9 -15 10 -12 10 -15 -3 -15 -20 0 -29 14 -21 34 7 17 54 22 54 6z m650 -23
c0 -5 -4 -5 -10 -2 -5 3 -10 14 -10 23 0 15 2 15 10 2 5 -8 10 -19 10 -23z
m-610 -3 c0 -10 -6 -14 -15 -10 -8 3 -15 1 -15 -4 0 -6 -5 -10 -10 -10 -6 0
-5 8 2 20 15 24 38 26 38 4z m114 1 c-4 -8 -10 -15 -15 -15 -4 0 -6 7 -3 15 4
8 10 15 15 15 4 0 6 -7 3 -15z m36 -11 c0 -8 -4 -14 -9 -14 -6 0 -9 9 -8 19 1
22 17 18 17 -5z m-75 -5 c-10 -15 -25 -10 -19 6 4 8 10 12 15 9 5 -3 7 -10 4
-15z m359 -39 c52 -25 126 -93 126 -115 0 -8 4 -15 10 -17 12 -4 41 -115 34
-132 -3 -8 -1 -17 5 -20 6 -4 4 -16 -5 -34 -7 -15 -14 -33 -14 -40 0 -18 -41
-93 -65 -119 -87 -92 -264 -120 -359 -57 -10 7 -25 10 -34 7 -9 -4 -13 -2 -9
4 3 5 -4 15 -16 22 -12 7 -33 34 -46 61 -14 28 -29 50 -33 50 -4 0 -8 12 -9
28 0 15 -4 35 -8 46 -4 10 -3 50 1 88 18 151 151 260 308 254 43 -2 81 -11
114 -26z m-416 -5 c3 -16 1 -18 -9 -7 -7 6 -21 12 -32 12 -10 0 -15 5 -12 11
11 17 49 6 53 -16z m45 5 c-3 -11 -9 -20 -14 -20 -11 0 -11 3 -3 24 9 23 23
20 17 -4z m-183 1 c0 -5 10 -13 22 -17 19 -6 19 -7 5 -16 -10 -5 -17 -15 -17
-23 0 -11 -6 -12 -22 -6 -29 10 -36 31 -8 24 16 -4 19 -2 14 11 -3 9 -10 16
-16 16 -5 0 -6 5 -3 10 8 13 25 13 25 1z m910 5 c0 -3 -4 -8 -10 -11 -5 -3
-10 -1 -10 4 0 6 5 11 10 11 6 0 10 -2 10 -4z m-817 -53 c-3 -7 -11 -13 -19
-13 -8 0 -23 -14 -33 -31 l-19 -31 1 28 c1 16 8 36 15 45 16 19 62 21 55 2z
m51 5 c-3 -4 -11 -5 -19 -1 -21 7 -19 12 4 10 11 0 18 -5 15 -9z m-174 -35 c0
-14 -19 -38 -25 -32 -8 8 5 39 16 39 5 0 9 -3 9 -7z m170 -3 c0 -5 -4 -10 -10
-10 -5 0 -10 5 -10 10 0 6 5 10 10 10 6 0 10 -4 10 -10z m-66 -41 c-12 -13
-21 -16 -28 -9 -7 7 -4 14 9 24 27 19 40 8 19 -15z m-82 -21 c-9 -9 -15 -9
-24 0 -9 9 -7 12 12 12 19 0 21 -3 12 -12z m-42 -8 c0 -5 -5 -10 -11 -10 -5 0
-7 5 -4 10 3 6 8 10 11 10 2 0 4 -4 4 -10z m80 -30 c0 -5 -7 -10 -15 -10 -8 0
-15 5 -15 10 0 6 7 10 15 10 8 0 15 -4 15 -10z m970 -31 c0 -3 -10 -4 -23 -2
-13 3 -24 10 -24 17 0 10 6 10 24 2 12 -6 23 -14 23 -17z m-930 1 c0 -5 -5
-10 -11 -10 -5 0 -7 5 -4 10 3 6 8 10 11 10 2 0 4 -4 4 -10z m780 -5 c0 -8 -4
-15 -10 -15 -5 0 -10 7 -10 15 0 8 5 15 10 15 6 0 10 -7 10 -15z m100 -15 c0
-5 -4 -10 -10 -10 -5 0 -10 5 -10 10 0 6 5 10 10 10 6 0 10 -4 10 -10z m-13
-52 c-3 -8 -6 -5 -6 6 -1 11 2 17 5 13 3 -3 4 -12 1 -19z m-1027 -8 c0 -5 -2
-10 -4 -10 -3 0 -8 5 -11 10 -3 6 -1 10 4 10 6 0 11 -4 11 -10z m85 0 c3 -5 2
-10 -4 -10 -5 0 -13 5 -16 10 -3 6 -2 10 4 10 5 0 13 -4 16 -10z m65 -19 c0
-11 -4 -23 -10 -26 -6 -4 -10 5 -10 19 0 14 5 26 10 26 6 0 10 -9 10 -19z
m-120 -1 c0 -5 -5 -10 -11 -10 -5 0 -7 5 -4 10 3 6 8 10 11 10 2 0 4 -4 4 -10z
m76 -17 c-10 -10 -19 5 -10 18 6 11 8 11 12 0 2 -7 1 -15 -2 -18z m794 -8 c-7
-9 -15 -13 -17 -11 -7 7 7 26 19 26 6 0 6 -6 -2 -15z m-722 -34 c-5 -2 -15 2
-21 8 -9 9 -8 14 3 21 11 7 17 4 21 -8 4 -9 2 -19 -3 -21z m-74 14 c3 -9 0
-15 -9 -15 -8 0 -15 7 -15 15 0 8 4 15 9 15 5 0 11 -7 15 -15z m826 -9 c0 -3
-4 -8 -10 -11 -5 -3 -10 -1 -10 4 0 6 5 11 10 11 6 0 10 -2 10 -4z m-830 -31
c0 -8 5 -15 10 -15 13 0 13 -37 0 -45 -10 -6 -14 1 -24 48 -4 15 -2 27 4 27 5
0 10 -7 10 -15z m59 1 c10 -12 8 -13 -9 -9 -25 7 -37 23 -17 23 8 0 20 -6 26
-14z m37 -23 c-11 -11 -17 4 -9 23 7 18 8 18 11 1 2 -10 1 -21 -2 -24z m-136
13 c0 -11 -19 -15 -25 -6 -3 5 1 10 9 10 9 0 16 -2 16 -4z m20 -16 c0 -5 -5
-10 -11 -10 -5 0 -7 5 -4 10 3 6 8 10 11 10 2 0 4 -4 4 -10z m80 -10 c0 -5 -4
-10 -10 -10 -5 0 -10 5 -10 10 0 6 5 10 10 10 6 0 10 -4 10 -10z m-104 -14
c11 -8 15 -18 10 -23 -5 -4 -11 -2 -13 5 -6 17 -23 15 -23 -3 0 -8 -4 -15 -10
-15 -11 0 -13 11 -4 34 8 20 15 20 40 2z m142 -14 c2 -7 -2 -10 -11 -6 -8 3
-18 1 -22 -5 -8 -14 -35 -14 -35 -1 0 6 9 10 20 10 11 0 20 5 20 11 0 14 23 6
28 -9z m712 8 c0 -5 -4 -10 -10 -10 -5 0 -10 5 -10 10 0 6 5 10 10 10 6 0 10
-4 10 -10z m-805 -30 c3 -5 19 -10 34 -10 20 0 30 -6 34 -20 3 -11 1 -22 -3
-25 -4 -3 -6 -14 -3 -25 7 -27 -9 -25 -37 5 -27 28 -40 32 -40 10 0 -8 -4 -15
-10 -15 -5 0 -10 6 -10 13 0 21 17 40 29 33 6 -4 11 -3 11 2 0 6 -7 12 -15 16
-16 6 -21 26 -6 26 6 0 13 -4 16 -10z m132 4 c-3 -3 -12 -4 -19 -1 -8 3 -5 6
6 6 11 1 17 -2 13 -5z m6 -28 c11 4 19 0 23 -11 4 -9 13 -14 21 -11 8 4 11 1
7 -5 -4 -6 -19 -8 -37 -5 -22 4 -33 1 -43 -11 -7 -10 -16 -14 -20 -10 -5 4 -2
12 5 17 12 7 11 11 -2 25 -23 22 -11 41 13 20 9 -8 24 -13 33 -9z m-173 -8 c0
-13 -23 -5 -28 10 -2 7 2 10 12 6 9 -3 16 -11 16 -16z m744 -26 c3 -5 -1 -9
-9 -9 -8 0 -15 4 -15 9 0 4 4 8 9 8 6 0 12 -4 15 -8z m-578 -37 c-5 -19 -11
-25 -22 -21 -10 4 -18 -1 -21 -14 -6 -24 -19 -26 -27 -5 -3 8 -1 15 4 15 6 0
10 7 10 15 0 8 9 15 20 15 11 0 23 7 27 15 9 25 16 9 9 -20z m-103 0 c19 -14
20 -47 2 -45 -5 1 -9 7 -7 14 1 8 -7 16 -19 19 -12 3 -18 10 -14 16 8 14 16
13 38 -4z m707 5 c0 -5 -7 -7 -15 -4 -8 4 -15 8 -15 10 0 2 7 4 15 4 8 0 15
-4 15 -10z m30 -18 c0 -15 -2 -15 -10 -2 -13 20 -13 33 0 25 6 -3 10 -14 10
-23z m-610 -27 c0 -8 -4 -15 -10 -15 -5 0 -10 7 -10 15 0 8 5 15 10 15 6 0 10
-7 10 -15z m450 -11 c0 -8 -4 -14 -10 -14 -5 0 -10 9 -10 21 0 11 5 17 10 14
6 -3 10 -13 10 -21z m-465 -34 c-9 -14 -35 14 -35 36 0 16 3 15 21 -4 11 -12
17 -27 14 -32z m95 43 c0 -5 -4 -14 -9 -22 -8 -12 -14 -12 -33 -4 l-23 12 23
0 c12 1 22 6 22 11 0 6 5 10 10 10 6 0 10 -3 10 -7z m-150 -32 c0 -11 -26 -22
-34 -14 -12 12 -5 23 14 23 11 0 20 -4 20 -9z m290 5 c0 -3 -4 -8 -10 -11 -5
-3 -10 -1 -10 4 0 6 5 11 10 11 6 0 10 -2 10 -4z m-192 -25 c3 -8 -1 -12 -9
-9 -7 2 -15 10 -17 17 -3 8 1 12 9 9 7 -2 15 -10 17 -17z m519 6 c0 -8 -6 -14
-14 -14 -17 0 -17 14 0 20 6 3 12 6 13 6 0 1 1 -5 1 -12z m83 -17 c0 -5 -5
-10 -11 -10 -5 0 -7 5 -4 10 3 6 8 10 11 10 2 0 4 -4 4 -10z m-123 -16 c-3 -3
-12 -4 -19 -1 -8 3 -5 6 6 6 11 1 17 -2 13 -5z m-387 -18 c0 -3 -4 -8 -10 -11
-5 -3 -10 -1 -10 4 0 6 5 11 10 11 6 0 10 -2 10 -4z m350 -6 c0 -5 -2 -10 -4
-10 -3 0 -8 5 -11 10 -3 6 -1 10 4 10 6 0 11 -4 11 -10z m80 6 c0 -3 -4 -8
-10 -11 -5 -3 -10 -1 -10 4 0 6 5 11 10 11 6 0 10 -2 10 -4z m-200 -16 c0 -5
-5 -10 -11 -10 -5 0 -7 5 -4 10 3 6 8 10 11 10 2 0 4 -4 4 -10z m-96 -25 c11
-8 15 -15 9 -15 -7 0 -15 5 -18 10 -4 6 -11 8 -16 5 -5 -4 -9 -1 -9 4 0 15 11
13 34 -4z m230 -1 c3 -8 2 -12 -4 -9 -6 3 -10 10 -10 16 0 14 7 11 14 -7z
m-34 -4 c0 -5 -5 -10 -11 -10 -5 0 -7 5 -4 10 3 6 8 10 11 10 2 0 4 -4 4 -10z
m-40 -10 c0 -5 -5 -10 -11 -10 -5 0 -7 5 -4 10 3 6 8 10 11 10 2 0 4 -4 4 -10z
m-190 -10 c0 -5 -2 -10 -4 -10 -3 0 -8 5 -11 10 -3 6 -1 10 4 10 6 0 11 -4 11
-10z m95 -10 c3 -5 1 -10 -4 -10 -6 0 -11 5 -11 10 0 6 2 10 4 10 3 0 8 -4 11
-10z"/>
<path d="M28477 5281 c3 -12 9 -21 14 -21 14 0 11 16 -5 29 -12 10 -13 8 -9
-8z"/>
<path d="M10590 6089 c-75 -25 -158 -69 -178 -94 -10 -11 -34 -33 -54 -48 -21
-15 -41 -39 -44 -52 -3 -14 -12 -25 -20 -25 -8 0 -14 -5 -14 -11 0 -6 -9 -24
-21 -40 -11 -16 -16 -29 -10 -29 6 0 11 -4 11 -10 0 -6 -5 -9 -12 -7 -17 3
-48 -88 -54 -162 -3 -36 -8 -69 -10 -73 -3 -4 -2 -13 2 -20 4 -6 8 -34 10 -62
1 -28 9 -64 18 -80 8 -16 13 -33 10 -38 -3 -4 11 -31 31 -60 19 -29 35 -58 35
-65 0 -19 110 -123 174 -165 33 -21 101 -51 152 -67 51 -16 107 -39 126 -52
75 -51 89 -60 113 -69 14 -5 25 -14 25 -19 0 -5 10 -13 22 -17 12 -3 31 -15
42 -25 11 -11 26 -19 33 -19 7 0 13 -4 13 -8 0 -19 89 -52 155 -58 39 -3 73
-8 77 -10 4 -3 10 1 13 7 4 5 13 8 21 5 17 -6 46 3 40 13 -3 4 11 5 29 3 25
-3 37 1 46 16 7 11 18 18 24 15 17 -6 95 69 95 91 0 22 -44 66 -66 66 -7 0
-14 5 -14 11 0 5 -4 7 -10 4 -5 -3 -10 1 -10 9 0 9 -8 16 -19 16 -11 0 -22 8
-25 18 -4 13 -17 18 -46 19 -22 1 -42 -2 -44 -6 -3 -4 -34 -6 -68 -4 -94 6
-98 6 -98 20 0 7 -9 17 -20 23 -11 6 -19 18 -19 28 1 16 2 16 6 0 2 -10 9 -18
14 -18 10 0 24 48 20 70 -2 12 0 12 10 3 17 -17 65 12 81 49 7 15 15 22 19 17
3 -6 14 5 23 25 9 19 27 48 40 63 29 35 75 183 76 243 2 116 -33 257 -82 329
-52 77 -99 131 -113 131 -8 0 -19 9 -25 20 -6 11 -16 20 -21 20 -6 0 -25 11
-41 26 -17 14 -37 23 -44 20 -8 -3 -14 -1 -14 4 0 11 -108 43 -126 36 -8 -3
-14 -1 -14 4 0 18 -209 9 -270 -11z m130 -23 c0 -3 -4 -8 -10 -11 -5 -3 -10
-1 -10 4 0 6 5 11 10 11 6 0 10 -2 10 -4z m-130 -62 c0 -8 -4 -12 -10 -9 -5 3
-10 10 -10 16 0 5 5 9 10 9 6 0 10 -7 10 -16z m25 -14 c3 -5 1 -10 -4 -10 -6
0 -11 5 -11 10 0 6 2 10 4 10 3 0 8 -4 11 -10z m-158 -76 c-3 -3 -12 -4 -19
-1 -8 3 -5 6 6 6 11 1 17 -2 13 -5z m63 -35 c0 -6 -4 -7 -10 -4 -5 3 -10 11
-10 16 0 6 5 7 10 4 6 -3 10 -11 10 -16z m-89 -32 c-8 -8 -11 -7 -11 4 0 20
13 34 18 19 3 -7 -1 -17 -7 -23z m129 7 c0 -2 -7 -4 -15 -4 -8 0 -15 4 -15 10
0 5 7 7 15 4 8 -4 15 -8 15 -10z m-55 -14 c3 -5 1 -10 -4 -10 -6 0 -11 5 -11
10 0 6 2 10 4 10 3 0 8 -4 11 -10z m336 -12 c85 -29 168 -108 191 -183 14 -44
19 -167 8 -190 -5 -11 -14 -31 -20 -45 -19 -47 -40 -73 -101 -124 -30 -25
-101 -46 -154 -46 -138 0 -268 119 -282 257 -3 32 -10 61 -15 64 -6 4 -3 19 6
38 9 17 14 31 11 31 -7 0 25 59 42 78 7 7 16 19 20 26 16 26 105 86 128 86 13
0 27 5 30 10 8 14 94 13 136 -2z m-504 -30 c-3 -8 -6 -5 -6 6 -1 11 2 17 5 13
3 -3 4 -12 1 -19z m68 -50 c-9 -43 -22 -57 -22 -24 0 14 3 26 8 26 5 0 9 7 9
15 0 8 3 15 6 15 3 0 3 -15 -1 -32z m45 13 c0 -11 -4 -23 -10 -26 -6 -4 -10 5
-10 19 0 14 5 26 10 26 6 0 10 -9 10 -19z m40 9 c0 -5 -2 -10 -4 -10 -3 0 -8
5 -11 10 -3 6 -1 10 4 10 6 0 11 -4 11 -10z m640 -40 c0 -5 -5 -10 -11 -10 -5
0 -7 5 -4 10 3 6 8 10 11 10 2 0 4 -4 4 -10z m-760 -4 c0 -3 -4 -8 -10 -11 -5
-3 -10 -1 -10 4 0 6 5 11 10 11 6 0 10 -2 10 -4z m58 -31 c0 -26 -13 -34 -20
-13 -4 10 9 35 18 38 1 0 2 -11 2 -25z m-108 11 c0 -3 -4 -8 -10 -11 -5 -3
-10 -1 -10 4 0 6 5 11 10 11 6 0 10 -2 10 -4z m60 -38 c0 -19 -2 -20 -10 -8
-13 19 -13 30 0 30 6 0 10 -10 10 -22z m-110 -18 c0 -5 -5 -10 -11 -10 -5 0
-7 5 -4 10 3 6 8 10 11 10 2 0 4 -4 4 -10z m148 -9 c3 -8 -1 -12 -9 -9 -7 2
-15 10 -17 17 -3 8 1 12 9 9 7 -2 15 -10 17 -17z m-43 -11 c3 -5 -1 -10 -10
-10 -9 0 -13 5 -10 10 3 6 8 10 10 10 2 0 7 -4 10 -10z m32 -26 c-3 -3 -12 -4
-19 -1 -8 3 -5 6 6 6 11 1 17 -2 13 -5z m-117 -19 c0 -8 -2 -15 -4 -15 -2 0
-6 7 -10 15 -3 8 -1 15 4 15 6 0 10 -7 10 -15z m880 5 c0 -5 -4 -10 -10 -10
-5 0 -10 5 -10 10 0 6 5 10 10 10 6 0 10 -4 10 -10z m-800 -4 c0 -3 -4 -8 -10
-11 -5 -3 -10 -1 -10 4 0 6 5 11 10 11 6 0 10 -2 10 -4z m2 -46 c24 -22 18
-26 -13 -10 -10 6 -19 15 -19 20 0 15 9 12 32 -10z m-22 -24 c0 -3 -4 -8 -10
-11 -5 -3 -10 -1 -10 4 0 6 5 11 10 11 6 0 10 -2 10 -4z m-54 -33 c-10 -10
-19 5 -10 18 6 11 8 11 12 0 2 -7 1 -15 -2 -18z m91 1 c-3 -3 -12 -4 -19 -1
-8 3 -5 6 6 6 11 1 17 -2 13 -5z m-47 -8 c0 -3 -4 -8 -10 -11 -5 -3 -10 -1
-10 4 0 6 5 11 10 11 6 0 10 -2 10 -4z m855 -46 c3 -5 1 -10 -4 -10 -6 0 -11
5 -11 10 0 6 2 10 4 10 3 0 8 -4 11 -10z m-48 -52 c-3 -8 -6 -5 -6 6 -1 11 2
17 5 13 3 -3 4 -12 1 -19z m103 -8 c0 -5 -2 -10 -4 -10 -3 0 -8 5 -11 10 -3 6
-1 10 4 10 6 0 11 -4 11 -10z m-800 -4 c0 -3 -4 -8 -10 -11 -5 -3 -10 -1 -10
4 0 6 5 11 10 11 6 0 10 -2 10 -4z m676 -62 c-3 -9 -6 -20 -6 -25 0 -5 -4 -9
-9 -9 -6 0 -8 36 -2 48 6 11 22 -2 17 -14z m-76 -36 c0 -16 -20 -7 -30 12 -10
19 -10 20 9 8 12 -7 21 -16 21 -20z m170 -8 c0 -5 -4 -10 -10 -10 -5 0 -10 5
-10 10 0 6 5 10 10 10 6 0 10 -4 10 -10z m-210 -4 c0 -3 -4 -8 -10 -11 -5 -3
-10 -1 -10 4 0 6 5 11 10 11 6 0 10 -2 10 -4z m24 -48 c-3 -10 2 -18 13 -21
12 -3 13 -5 3 -6 -29 -2 -43 15 -36 45 6 22 9 25 16 13 5 -7 7 -22 4 -31z m76
32 c0 -5 7 -10 15 -10 8 0 15 -5 15 -11 0 -6 -7 -8 -16 -5 -9 3 -19 6 -24 6
-4 0 -10 7 -14 15 -3 9 0 15 9 15 8 0 15 -4 15 -10z m-156 -14 c-3 -8 3 -16
16 -19 24 -6 25 -37 1 -45 -8 -3 -11 0 -7 7 4 6 2 11 -3 11 -6 0 -11 -5 -11
-11 0 -6 -7 -9 -15 -5 -9 3 -15 0 -15 -9 0 -19 -36 -19 -43 0 -4 8 -2 17 3 20
6 4 10 -1 10 -9 0 -9 4 -16 10 -16 5 0 7 8 3 18 -3 9 -3 14 2 10 13 -12 35 12
35 38 0 13 4 24 10 24 5 0 7 -6 4 -14z m160 -36 c19 -8 19 -9 2 -9 -24 -1 -56
27 -56 48 0 11 5 9 16 -7 9 -13 26 -27 38 -32z m-584 30 c0 -5 -2 -10 -4 -10
-3 0 -8 5 -11 10 -3 6 -1 10 4 10 6 0 11 -4 11 -10z m30 -10 c0 -5 -2 -10 -4
-10 -3 0 -8 5 -11 10 -3 6 -1 10 4 10 6 0 11 -4 11 -10z m60 -36 c0 -8 -4 -12
-10 -9 -5 3 -10 10 -10 16 0 5 5 9 10 9 6 0 10 -7 10 -16z m-140 2 c0 -3 -4
-8 -10 -11 -5 -3 -10 -1 -10 4 0 6 5 11 10 11 6 0 10 -2 10 -4z m295 -32 c-8
-16 -15 -37 -15 -47 0 -15 -3 -16 -20 -7 -23 12 -25 7 -10 -21 7 -13 7 -19 0
-19 -5 0 -10 5 -10 10 0 6 -6 10 -13 10 -7 0 -21 6 -31 13 -13 10 -15 18 -7
37 5 14 10 23 11 20 1 -3 3 -13 5 -23 6 -30 16 -34 31 -13 9 13 14 15 14 6 0
-9 4 -8 14 5 7 10 11 26 9 36 -3 11 2 19 14 21 25 6 25 5 8 -28z m-125 16 c0
-5 -5 -10 -11 -10 -5 0 -7 5 -4 10 3 6 8 10 11 10 2 0 4 -4 4 -10z m402 -13
c10 -17 1 -22 -17 -7 -12 10 -16 9 -21 -6 -3 -11 -10 -27 -15 -37 -9 -16 -7
-18 10 -12 22 7 26 -1 12 -24 -6 -10 -10 -10 -16 -1 -5 8 -10 7 -19 -5 -8 -12
-18 -14 -35 -7 -21 8 -22 10 -7 24 18 19 22 43 4 32 -8 -5 -9 -2 -5 10 4 10 7
22 7 27 0 5 4 9 10 9 5 0 9 -10 7 -21 -1 -12 3 -24 10 -26 8 -3 11 5 9 24 -2
15 -1 32 1 36 7 11 56 -1 65 -16z m-197 4 c7 -12 -12 -24 -25 -16 -11 7 -4 25
10 25 5 0 11 -4 15 -9z m255 -1 c0 -5 -4 -10 -10 -10 -5 0 -10 5 -10 10 0 6 5
10 10 10 6 0 10 -4 10 -10z m-500 -10 c0 -5 -4 -10 -10 -10 -5 0 -10 5 -10 10
0 6 5 10 10 10 6 0 10 -4 10 -10z m-30 -20 c0 -5 -4 -10 -10 -10 -5 0 -10 5
-10 10 0 6 5 10 10 10 6 0 10 -4 10 -10z m65 0 c3 -5 -1 -10 -9 -10 -9 0 -16
5 -16 10 0 6 4 10 9 10 6 0 13 -4 16 -10z m175 -12 c18 -23 18 -38 -1 -38 -5
0 -9 7 -9 15 0 8 -4 15 -9 15 -5 0 -11 7 -15 15 -8 23 13 18 34 -7z m105 12
c-3 -5 -10 -10 -16 -10 -5 0 -9 5 -9 10 0 6 7 10 16 10 8 0 12 -4 9 -10z m125
-21 c0 -6 -4 -7 -10 -4 -5 3 -10 11 -10 16 0 6 5 7 10 4 6 -3 10 -11 10 -16z
m-136 -10 c5 -5 6 -12 2 -16 -4 -4 -11 -1 -16 7 -8 13 -11 12 -22 -3 -12 -16
-13 -15 -13 8 0 20 4 24 20 19 11 -4 24 -10 29 -15z m-316 -1 c-2 -6 -10 -14
-16 -16 -7 -2 -10 2 -6 12 7 18 28 22 22 4z m202 -17 c0 -12 -28 -22 -34 -12
-3 5 -3 11 1 15 9 9 33 7 33 -3z m77 -56 c4 -25 2 -27 -11 -15 -19 15 -22 54
-4 48 6 -2 13 -17 15 -33z m-101 0 c-9 -9 -16 -13 -16 -8 0 12 22 34 28 28 2
-2 -3 -11 -12 -20z m239 4 c-10 -15 -25 -10 -19 6 4 8 10 12 15 9 5 -3 7 -10
4 -15z m-195 -9 c0 -5 -2 -10 -4 -10 -3 0 -8 5 -11 10 -3 6 -1 10 4 10 6 0 11
-4 11 -10z m160 6 c0 -2 -7 -17 -15 -32 -16 -30 -19 -25 -9 14 5 18 24 33 24
18z m95 -5 c3 -5 1 -12 -5 -16 -5 -3 -10 1 -10 9 0 18 6 21 15 7z m-141 -16
c-4 -8 -7 -15 -9 -15 -2 0 -5 7 -9 15 -3 9 0 15 9 15 9 0 12 -6 9 -15z m94
-35 c-2 -7 -10 1 -17 16 -12 27 -11 28 4 12 10 -9 16 -21 13 -28z m32 -24 c0
-3 -4 -8 -10 -11 -5 -3 -10 -1 -10 4 0 6 5 11 10 11 6 0 10 -2 10 -4z m215 -6
c3 -5 1 -10 -4 -10 -6 0 -11 5 -11 10 0 6 2 10 4 10 3 0 8 -4 11 -10z m-145
-10 c0 -5 -4 -10 -10 -10 -5 0 -10 5 -10 10 0 6 5 10 10 10 6 0 10 -4 10 -10z
m70 -30 c0 -5 -4 -10 -10 -10 -5 0 -10 5 -10 10 0 6 5 10 10 10 6 0 10 -4 10
-10z m-10 -50 c0 -5 -4 -10 -10 -10 -5 0 -10 5 -10 10 0 6 5 10 10 10 6 0 10
-4 10 -10z m60 -20 c0 -5 -5 -10 -11 -10 -5 0 -7 5 -4 10 3 6 8 10 11 10 2 0
4 -4 4 -10z"/>
<path d="M15112 6089 c-12 -4 -28 -6 -36 -3 -8 3 -23 1 -34 -5 -20 -10 -20
-22 -20 -363 -1 -194 3 -357 7 -363 4 -5 8 -21 9 -34 1 -30 52 -151 64 -151 4
0 8 -5 8 -11 0 -16 110 -119 127 -119 7 0 13 -4 13 -10 0 -5 12 -13 28 -16 15
-4 32 -10 37 -14 6 -4 41 -15 79 -25 53 -14 90 -17 170 -12 93 5 186 29 186
47 0 4 12 8 27 8 15 0 29 5 31 11 2 6 9 11 15 11 28 0 159 145 162 179 1 9 7
26 14 39 7 13 10 28 8 35 -2 7 2 17 10 22 16 12 24 78 26 217 2 78 -1 99 -13
103 -12 5 -12 8 -1 14 19 12 19 420 0 432 -7 4 -16 6 -20 3 -4 -2 -11 0 -14 6
-4 7 -43 10 -101 8 -93 -2 -114 -6 -117 -24 -1 -5 -5 -8 -8 -7 -4 1 -7 -19 -7
-45 -10 -739 -2 -679 -107 -750 -34 -23 -52 -27 -122 -29 -46 -1 -85 2 -88 8
-4 5 -17 9 -31 9 -14 0 -24 6 -24 15 0 8 -9 19 -20 25 -23 12 -45 59 -55 118
-4 23 -7 179 -7 347 0 215 -4 307 -12 312 -6 4 -24 8 -41 9 -16 1 -50 4 -75 7
-25 3 -55 1 -68 -4z m21 -114 c4 -8 2 -17 -2 -20 -5 -2 -11 4 -14 15 -6 23 8
27 16 5z m67 -45 c0 -5 -4 -10 -10 -10 -5 0 -10 5 -10 10 0 6 5 10 10 10 6 0
10 -4 10 -10z m30 -34 c0 -3 -4 -8 -10 -11 -5 -3 -10 -1 -10 4 0 6 5 11 10 11
6 0 10 -2 10 -4z m70 -16 c0 -5 -5 -10 -11 -10 -5 0 -7 5 -4 10 3 6 8 10 11
10 2 0 4 -4 4 -10z m537 -12 c-3 -8 -6 -5 -6 6 -1 11 2 17 5 13 3 -3 4 -12 1
-19z m-652 2 c3 -5 1 -10 -4 -10 -6 0 -11 5 -11 10 0 6 2 10 4 10 3 0 8 -4 11
-10z m733 -7 c-2 -9 -8 -18 -15 -20 -7 -3 -9 3 -6 16 6 25 26 28 21 4z m62 7
c0 -5 -2 -10 -4 -10 -3 0 -8 5 -11 10 -3 6 -1 10 4 10 6 0 11 -4 11 -10z
m-140 -24 c0 -3 -4 -8 -10 -11 -5 -3 -10 -1 -10 4 0 6 5 11 10 11 6 0 10 -2
10 -4z m98 -41 c-3 -3 -9 2 -12 12 -6 14 -5 15 5 6 7 -7 10 -15 7 -18z m-48
-10 c0 -8 -4 -15 -10 -15 -5 0 -7 7 -4 15 4 8 8 15 10 15 2 0 4 -7 4 -15z m40
-15 c0 -5 -4 -10 -9 -10 -6 0 -13 5 -16 10 -3 6 1 10 9 10 9 0 16 -4 16 -10z
m-65 -18 c-3 -3 -11 0 -18 7 -9 10 -8 11 6 5 10 -3 15 -9 12 -12z m-718 -14
c-3 -8 -6 -5 -6 6 -1 11 2 17 5 13 3 -3 4 -12 1 -19z m813 12 c0 -5 -2 -10 -4
-10 -3 0 -8 5 -11 10 -3 6 -1 10 4 10 6 0 11 -4 11 -10z m-45 -20 c3 -5 -3
-10 -14 -10 -10 0 -21 -6 -24 -12 -2 -7 -8 -10 -12 -6 -9 8 15 37 32 38 6 0
15 -4 18 -10z m-795 -4 c0 -11 -19 -15 -25 -6 -3 5 1 10 9 10 9 0 16 -2 16 -4z
m710 -23 c0 4 10 -1 22 -13 16 -15 19 -23 11 -31 -6 -6 -9 -19 -6 -28 4 -13 3
-13 -5 -2 -5 7 -7 21 -5 31 3 11 -2 19 -16 23 -12 3 -21 13 -21 24 0 15 2 16
10 3 5 -8 10 -11 10 -7z m80 -21 c-6 -2 -10 -10 -10 -18 0 -9 -4 -13 -9 -10
-5 4 -4 16 2 30 8 16 14 21 19 13 4 -7 3 -13 -2 -15z m60 -28 c0 -8 -4 -12
-10 -9 -5 3 -10 10 -10 16 0 5 5 9 10 9 6 0 10 -7 10 -16z m-35 -13 c3 -5 1
-12 -4 -16 -6 -3 -8 -12 -4 -20 3 -8 0 -15 -6 -15 -6 0 -11 14 -11 30 0 29 13
40 25 21z m-50 -21 c3 -5 1 -10 -4 -10 -6 0 -11 5 -11 10 0 6 2 10 4 10 3 0 8
-4 11 -10z m85 -16 c0 -14 -12 -19 -23 -8 -9 9 4 35 14 28 5 -3 9 -12 9 -20z
m-120 -4 c0 -5 -4 -10 -10 -10 -5 0 -10 5 -10 10 0 6 5 10 10 10 6 0 10 -4 10
-10z m33 -31 c-9 -9 -8 -15 3 -27 20 -20 11 -26 -15 -10 -22 13 -29 38 -11 38
6 0 10 8 10 17 0 13 3 14 12 5 9 -9 9 -15 1 -23z m96 -12 c0 -9 -2 -9 -6 1 -2
6 -11 12 -19 12 -8 0 -14 5 -14 10 0 7 6 7 20 0 11 -6 20 -16 19 -23z m-31
-15 c2 -7 -2 -10 -12 -6 -9 3 -16 11 -16 16 0 13 23 5 28 -10z m32 -12 c0 -5
-5 -10 -11 -10 -5 0 -7 5 -4 10 3 6 8 10 11 10 2 0 4 -4 4 -10z m-125 -20 c3
-5 1 -10 -4 -10 -6 0 -11 5 -11 10 0 6 2 10 4 10 3 0 8 -4 11 -10z m92 -5 c8
-9 13 -19 10 -22 -10 -10 -37 6 -37 22 0 19 7 19 27 0z m-40 -20 c18 -19 10
-33 -10 -17 -8 7 -17 9 -21 5 -4 -4 -4 0 0 10 8 21 11 21 31 2z m43 -35 c0 -5
-4 -10 -10 -10 -5 0 -10 5 -10 10 0 6 5 10 10 10 6 0 10 -4 10 -10z m-830 -10
c0 -5 -4 -10 -10 -10 -5 0 -10 5 -10 10 0 6 5 10 10 10 6 0 10 -4 10 -10z
m790 -5 c0 -8 -4 -15 -9 -15 -13 0 -22 16 -14 24 11 11 23 6 23 -9z m-47 -43
c-3 -15 -11 -30 -17 -34 -10 -7 6 -12 27 -9 4 0 7 -6 7 -14 0 -8 -4 -15 -10
-15 -5 0 -10 5 -10 10 0 6 -7 10 -15 10 -17 0 -20 16 -4 26 6 3 8 16 5 29 -6
24 1 38 15 29 5 -3 6 -17 2 -32z m98 24 c5 3 9 0 9 -5 0 -13 -27 -15 -34 -2
-3 4 -2 11 2 15 3 4 8 2 10 -3 2 -6 8 -9 13 -5z m-70 -49 c-13 -13 -15 1 -4
30 7 17 8 17 11 -1 2 -10 -1 -23 -7 -29z m39 23 c0 -5 -4 -10 -10 -10 -5 0
-10 5 -10 10 0 6 5 10 10 10 6 0 10 -4 10 -10z m-145 -10 c3 -5 1 -10 -4 -10
-6 0 -11 5 -11 10 0 6 2 10 4 10 3 0 8 -4 11 -10z m172 -22 c-3 -8 -6 -5 -6 6
-1 11 2 17 5 13 3 -3 4 -12 1 -19z m-782 2 c3 -5 2 -10 -4 -10 -5 0 -13 5 -16
10 -3 6 -2 10 4 10 5 0 13 -4 16 -10z m745 -46 c0 -8 -4 -12 -10 -9 -5 3 -10
10 -10 16 0 5 5 9 10 9 6 0 10 -7 10 -16z m55 6 c3 -5 1 -10 -4 -10 -6 0 -11
5 -11 10 0 6 2 10 4 10 3 0 8 -4 11 -10z m-790 -20 c3 -5 1 -10 -4 -10 -6 0
-11 5 -11 10 0 6 2 10 4 10 3 0 8 -4 11 -10z m596 -53 c-8 -8 -11 -7 -11 4 0
20 13 34 18 19 3 -7 -1 -17 -7 -23z m-594 17 c-3 -3 -12 -4 -19 -1 -8 3 -5 6
6 6 11 1 17 -2 13 -5z m678 -4 c3 -5 -1 -10 -10 -10 -9 0 -13 5 -10 10 3 6 8
10 10 10 2 0 7 -4 10 -10z m-45 -20 c0 -5 -4 -10 -10 -10 -5 0 -10 5 -10 10 0
6 5 10 10 10 6 0 10 -4 10 -10z m72 -12 c-7 -7 -12 -8 -12 -2 0 14 12 26 19
19 2 -3 -1 -11 -7 -17z m-582 -10 c0 -6 -6 -5 -15 2 -8 7 -15 14 -15 16 0 2 7
1 15 -2 8 -4 15 -11 15 -16z m-110 2 c0 -5 -4 -10 -10 -10 -5 0 -10 5 -10 10
0 6 5 10 10 10 6 0 10 -4 10 -10z m80 -14 c0 -9 -7 -12 -20 -9 -11 3 -20 9
-20 14 0 5 9 9 20 9 11 0 20 -6 20 -14z m107 -8 c-3 -8 -6 -5 -6 6 -1 11 2 17
5 13 3 -3 4 -12 1 -19z m-42 -29 c11 -17 -1 -21 -15 -4 -8 9 -8 15 -2 15 6 0
14 -5 17 -11z m-45 -3 c0 -3 -4 -8 -10 -11 -5 -3 -10 -1 -10 4 0 6 5 11 10 11
6 0 10 -2 10 -4z m40 -36 c0 -5 -4 -10 -10 -10 -5 0 -10 5 -10 10 0 6 5 10 10
10 6 0 10 -4 10 -10z m100 -54 c0 -3 -4 -8 -10 -11 -5 -3 -10 -1 -10 4 0 6 5
11 10 11 6 0 10 -2 10 -4z m220 -6 c0 -5 -2 -10 -4 -10 -3 0 -8 5 -11 10 -3 6
-1 10 4 10 6 0 11 -4 11 -10z m-340 -10 c0 -5 -5 -10 -11 -10 -5 0 -7 5 -4 10
3 6 8 10 11 10 2 0 4 -4 4 -10z"/>
<path d="M17420 6080 c-15 -15 -17 -66 -18 -541 -1 -309 2 -530 8 -539 7 -12
34 -15 127 -16 65 -1 125 3 134 7 13 7 16 29 17 135 0 123 1 127 26 151 22 20
32 23 64 17 40 -8 110 -71 139 -127 8 -17 40 -64 70 -103 39 -52 62 -74 81
-77 15 -3 86 -4 157 -3 123 1 130 2 133 22 2 11 -6 28 -18 39 -11 10 -20 24
-20 32 0 7 -4 13 -9 13 -4 0 -25 28 -47 63 -21 34 -53 81 -71 105 -32 42 -42
72 -24 72 11 0 121 103 121 114 0 4 8 20 19 34 75 109 68 336 -15 461 -14 23
-31 41 -36 41 -6 0 -18 10 -28 23 -25 32 -94 65 -160 78 -73 14 -279 19 -309
7 -15 -5 -27 -5 -30 0 -3 5 -71 9 -150 9 -121 0 -147 -3 -161 -17z m175 -50
c3 -5 1 -10 -4 -10 -6 0 -11 5 -11 10 0 6 2 10 4 10 3 0 8 -4 11 -10z m100
-30 c3 -5 1 -10 -4 -10 -6 0 -11 5 -11 10 0 6 2 10 4 10 3 0 8 -4 11 -10z
m-120 -10 c3 -5 1 -10 -4 -10 -6 0 -11 5 -11 10 0 6 2 10 4 10 3 0 8 -4 11
-10z m132 -82 c-3 -8 -6 -5 -6 6 -1 11 2 17 5 13 3 -3 4 -12 1 -19z m-83 -80
c-4 -6 -9 -6 -13 -1 -3 5 -14 12 -23 16 -10 3 -18 11 -18 16 0 5 14 3 30 -6
17 -8 27 -19 24 -25z m517 -1 c-8 -8 -11 -7 -11 4 0 20 13 34 18 19 3 -7 -1
-17 -7 -23z m-173 2 c81 -16 114 -58 117 -146 1 -29 -1 -50 -5 -48 -4 3 -11
-6 -14 -20 -4 -14 -11 -25 -16 -25 -6 0 -10 -7 -10 -15 0 -8 -6 -15 -12 -16
-7 0 -22 -3 -33 -6 -11 -3 -81 -9 -155 -13 -74 -4 -145 -11 -157 -15 -24 -8
-34 11 -10 20 8 4 12 40 13 130 1 131 7 151 47 157 60 8 188 7 235 -3z m-368
-24 c16 -19 1 -19 -24 0 -16 12 -17 15 -4 15 8 0 21 -7 28 -15z m600 -45 c0
-5 -2 -10 -4 -10 -3 0 -8 5 -11 10 -3 6 -1 10 4 10 6 0 11 -4 11 -10z m-646
-19 c3 -5 -1 -11 -9 -14 -9 -4 -12 -1 -8 9 6 16 10 17 17 5z m1 -41 c3 -5 -1
-10 -9 -10 -9 0 -16 -7 -16 -17 0 -9 -3 -14 -6 -10 -8 8 5 47 16 47 5 0 12 -4
15 -10z m-50 -10 c3 -5 2 -10 -4 -10 -5 0 -13 5 -16 10 -3 6 -2 10 4 10 5 0
13 -4 16 -10z m-50 -20 c3 -5 1 -10 -4 -10 -6 0 -11 5 -11 10 0 6 2 10 4 10 3
0 8 -4 11 -10z m715 -60 c0 -5 -5 -10 -11 -10 -5 0 -7 5 -4 10 3 6 8 10 11 10
2 0 4 -4 4 -10z m-585 -10 c3 -5 -1 -10 -10 -10 -9 0 -13 5 -10 10 3 6 8 10
10 10 2 0 7 -4 10 -10z m-65 -10 c0 -5 -2 -10 -4 -10 -3 0 -8 5 -11 10 -3 6
-1 10 4 10 6 0 11 -4 11 -10z m60 -32 c0 -7 -4 -19 -9 -27 -6 -9 -8 -5 -8 13
0 14 3 26 8 26 5 0 9 -6 9 -12z m610 -9 c0 -5 -4 -9 -10 -9 -5 0 -10 7 -10 16
0 8 5 12 10 9 6 -3 10 -10 10 -16z m-654 -26 c-4 -4 -11 -1 -16 7 -16 25 -11
35 7 17 9 -9 13 -20 9 -24z m734 27 c0 -5 -5 -10 -11 -10 -5 0 -7 5 -4 10 3 6
8 10 11 10 2 0 4 -4 4 -10z m-130 -9 c0 -5 -7 -11 -14 -14 -10 -4 -13 -1 -9 9
6 15 23 19 23 5z m-500 -22 c0 -6 -4 -7 -10 -4 -5 3 -10 11 -10 16 0 6 5 7 10
4 6 -3 10 -11 10 -16z m420 -20 c0 -5 -7 -9 -15 -9 -15 0 -20 12 -9 23 8 8 24
-1 24 -14z m125 11 c-3 -5 -13 -10 -21 -10 -8 0 -14 5 -14 10 0 6 9 10 21 10
11 0 17 -4 14 -10z m-695 -4 c0 -3 -4 -8 -10 -11 -5 -3 -10 -1 -10 4 0 6 5 11
10 11 6 0 10 -2 10 -4z m490 0 c0 -3 -4 -8 -10 -11 -5 -3 -10 -1 -10 4 0 6 5
11 10 11 6 0 10 -2 10 -4z m-350 -21 c0 -8 -4 -15 -10 -15 -5 0 -10 7 -10 15
0 8 5 15 10 15 6 0 10 -7 10 -15z m389 -37 c0 6 8 12 17 12 13 0 14 -3 5 -14
-10 -11 -8 -16 8 -21 13 -4 21 -15 21 -30 0 -12 7 -26 16 -29 8 -3 12 -11 9
-17 -4 -6 -14 -8 -22 -5 -9 4 -21 -1 -28 -11 -8 -10 -17 -15 -21 -11 -4 4 -1
14 6 23 7 9 10 19 6 23 -4 4 -15 -2 -23 -13 -10 -13 -14 -14 -10 -4 6 17 -8
47 -17 38 -3 -3 -7 -18 -8 -33 -1 -15 -8 -32 -15 -37 -16 -14 -53 -2 -53 17 0
12 -4 12 -21 4 -11 -7 -23 -9 -27 -6 -8 9 2 16 37 26 27 7 31 6 31 -11 0 -10
7 -19 15 -19 23 0 18 38 -7 51 -16 9 -23 9 -26 0 -5 -16 -32 -14 -38 4 -4 8
-10 13 -14 10 -5 -3 -6 4 -3 15 6 23 23 27 23 5 0 -20 17 -19 28 1 8 14 12 12
31 -12 17 -21 24 -25 30 -15 5 7 6 22 4 32 -3 10 0 19 6 19 6 0 11 11 11 23 0
38 14 42 21 5 4 -18 7 -27 8 -20z m113 40 c-16 -16 -15 -28 3 -28 8 0 15 -7
15 -16 0 -13 -3 -14 -14 -5 -11 10 -16 9 -23 -3 -5 -10 -16 -13 -31 -10 -26 7
-20 24 9 24 12 0 19 7 19 18 0 21 8 32 24 32 6 0 5 -5 -2 -12z m-542 -8 c0 -5
-4 -10 -10 -10 -5 0 -10 5 -10 10 0 6 5 10 10 10 6 0 10 -4 10 -10z m120 0 c0
-5 -2 -10 -4 -10 -3 0 -8 5 -11 10 -3 6 -1 10 4 10 6 0 11 -4 11 -10z m388 -2
c-3 -7 -12 -14 -21 -16 -12 -2 -15 1 -11 12 7 19 38 22 32 4z m97 -18 c8 -13
-1 -13 -26 0 -10 6 -19 15 -19 21 0 11 35 -5 45 -21z m45 20 c0 -5 -2 -10 -4
-10 -3 0 -8 5 -11 10 -3 6 -1 10 4 10 6 0 11 -4 11 -10z m-570 -4 c0 -3 -4 -8
-10 -11 -5 -3 -10 -1 -10 4 0 6 5 11 10 11 6 0 10 -2 10 -4z m300 -11 c0 -8
-4 -15 -10 -15 -5 0 -10 7 -10 15 0 8 5 15 10 15 6 0 10 -7 10 -15z m-460 -20
c0 -8 -2 -15 -4 -15 -2 0 -6 7 -10 15 -3 8 -1 15 4 15 6 0 10 -7 10 -15z m145
-5 c3 -5 -3 -10 -14 -10 -12 0 -21 5 -21 10 0 6 6 10 14 10 8 0 18 -4 21 -10z
m300 -10 c3 -5 1 -10 -4 -10 -6 0 -11 5 -11 10 0 6 2 10 4 10 3 0 8 -4 11 -10z
m-490 -10 c3 -5 1 -10 -4 -10 -6 0 -11 5 -11 10 0 6 2 10 4 10 3 0 8 -4 11
-10z m305 -11 c0 -6 -4 -7 -10 -4 -5 3 -10 11 -10 16 0 6 5 7 10 4 6 -3 10
-11 10 -16z m-80 -4 c-7 -8 -17 -15 -22 -15 -11 0 14 29 26 30 5 0 3 -7 -4
-15z m460 -4 c0 -10 -24 -21 -46 -21 -8 0 -14 5 -14 11 0 6 9 8 20 4 11 -4 20
-2 20 4 0 6 5 11 10 11 6 0 10 -4 10 -9z m-540 -16 c0 -8 -4 -15 -10 -15 -5 0
-10 7 -10 15 0 8 5 15 10 15 6 0 10 -7 10 -15z m-80 1 c0 -3 -4 -8 -10 -11 -5
-3 -10 -1 -10 4 0 6 5 11 10 11 6 0 10 -2 10 -4z m292 -18 c-7 -7 -12 -8 -12
-2 0 14 12 26 19 19 2 -3 -1 -11 -7 -17z m-262 2 c0 -5 -2 -10 -4 -10 -3 0 -8
5 -11 10 -3 6 -1 10 4 10 6 0 11 -4 11 -10z m196 -17 c-10 -10 -19 5 -10 18 6
11 8 11 12 0 2 -7 1 -15 -2 -18z m-159 1 c-3 -3 -12 -4 -19 -1 -8 3 -5 6 6 6
11 1 17 -2 13 -5z m481 -53 c-12 -4 -29 20 -21 32 3 4 11 0 18 -10 9 -12 10
-19 3 -22z m-55 15 c19 -14 23 -36 7 -36 -5 0 -10 7 -10 15 0 12 -4 13 -19 6
-16 -9 -18 -8 -14 9 6 23 12 24 36 6z m-403 0 c0 -3 -4 -8 -10 -11 -5 -3 -10
-1 -10 4 0 6 5 11 10 11 6 0 10 -2 10 -4z m260 -6 c0 -5 -5 -10 -11 -10 -5 0
-7 5 -4 10 3 6 8 10 11 10 2 0 4 -4 4 -10z m170 -50 c12 -8 11 -10 -7 -10 -13
0 -23 5 -23 10 0 13 11 13 30 0z m77 -22 c-3 -8 -6 -5 -6 6 -1 11 2 17 5 13 3
-3 4 -12 1 -19z m-37 -8 c0 -5 -5 -10 -11 -10 -5 0 -7 5 -4 10 3 6 8 10 11 10
2 0 4 -4 4 -10z m30 -50 c0 -5 -5 -10 -11 -10 -5 0 -7 5 -4 10 3 6 8 10 11 10
2 0 4 -4 4 -10z m25 -30 c3 -5 1 -10 -4 -10 -6 0 -11 5 -11 10 0 6 2 10 4 10
3 0 8 -4 11 -10z m25 -84 c0 -3 -4 -8 -10 -11 -5 -3 -10 -1 -10 4 0 6 5 11 10
11 6 0 10 -2 10 -4z"/>
<path d="M17987 5423 c-3 -4 11 -15 29 -24 25 -12 34 -13 34 -4 0 7 -8 15 -17
19 -10 3 -23 8 -30 12 -6 3 -13 1 -16 -3z"/>
<path d="M30794 6082 c-9 -8 -14 -36 -14 -70 -1 -70 -1 -309 0 -713 l0 -307
23 -6 c12 -3 70 -6 128 -6 148 0 139 -21 130 318 -1 19 -5 31 -11 27 -5 -3
-10 -1 -10 4 0 6 5 11 11 11 7 0 10 19 8 53 -6 90 20 102 66 30 16 -27 39 -70
51 -98 40 -94 97 -200 117 -217 31 -27 155 -25 191 3 14 11 26 26 26 34 0 7
11 32 24 56 14 24 23 47 20 51 -3 4 2 11 10 14 9 3 16 10 16 15 0 5 9 28 20
52 14 29 19 56 16 85 -4 37 -2 41 10 31 11 -9 18 -9 26 -1 9 9 6 16 -9 30 -16
13 -19 22 -11 35 8 16 4 17 -37 13 -26 -3 -43 -1 -40 5 9 13 -9 11 -24 -3 -11
-11 -13 -10 -9 2 3 9 21 17 49 20 32 4 43 9 41 20 -2 10 5 7 22 -9 14 -13 24
-28 23 -34 -1 -5 5 -12 13 -14 13 -4 13 -3 0 6 -12 9 -11 11 8 11 12 0 22 5
22 11 0 6 -8 8 -19 4 -12 -3 -21 0 -25 10 -3 9 -2 13 3 10 5 -3 13 -1 16 5 5
8 11 7 22 -1 11 -10 16 -10 22 0 10 15 53 11 58 -6 5 -15 -36 -53 -59 -53 -23
0 -34 -26 -19 -43 7 -9 10 -84 10 -215 -1 -148 2 -207 11 -217 11 -13 10 -14
-4 -9 -22 8 -20 -1 5 -25 20 -18 33 -20 128 -17 58 2 114 7 124 11 15 6 17 27
18 214 3 552 -2 865 -13 878 -14 17 -252 11 -273 -7 -8 -6 -29 -42 -48 -78
-18 -37 -38 -76 -44 -87 -6 -11 -19 -38 -29 -60 -11 -22 -21 -42 -24 -45 -13
-13 -120 -238 -120 -253 0 -9 -4 -17 -10 -17 -5 0 -10 -12 -10 -26 0 -22 -3
-24 -22 -19 -28 8 -68 54 -68 77 0 9 -4 20 -10 23 -5 3 -30 50 -55 103 -25 53
-50 104 -55 112 -6 8 -23 41 -38 73 -16 31 -32 54 -37 50 -4 -5 -5 -3 -2 3 4
6 -7 39 -23 73 -33 67 -55 82 -119 81 -20 -1 -69 1 -110 3 -53 2 -77 -1 -87
-11z m161 -62 c3 -5 1 -10 -4 -10 -6 0 -11 5 -11 10 0 6 2 10 4 10 3 0 8 -4
11 -10z m-75 -36 c0 -8 -5 -12 -10 -9 -6 4 -8 11 -5 16 9 14 15 11 15 -7z
m106 -21 c-10 -10 -19 5 -10 18 6 11 8 11 12 0 2 -7 1 -15 -2 -18z m-35 -31
c-6 -2 -21 7 -33 19 l-23 22 33 -19 c18 -10 28 -20 23 -22z m955 11 c-10 -10
-19 5 -10 18 6 11 8 11 12 0 2 -7 1 -15 -2 -18z m-33 -4 c-4 -12 -11 -18 -20
-15 -8 3 -19 6 -24 6 -5 0 -9 4 -9 10 0 5 6 7 14 4 8 -3 17 -1 21 5 11 19 23
12 18 -10z m-1008 -6 c-4 -10 -10 -28 -12 -40 -3 -13 -9 -23 -14 -23 -5 0 -7
12 -3 28 10 45 13 52 25 52 7 0 8 -7 4 -17z m35 -3 c0 -5 -4 -10 -10 -10 -5 0
-10 5 -10 10 0 6 5 10 10 10 6 0 10 -4 10 -10z m100 -41 c0 -18 -4 -28 -10
-24 -5 3 -10 20 -10 36 0 18 4 28 10 24 6 -3 10 -20 10 -36z m940 31 c0 -5 -4
-10 -10 -10 -5 0 -10 5 -10 10 0 6 5 10 10 10 6 0 10 -4 10 -10z m-1040 -30
c0 -5 -7 -10 -16 -10 -8 0 -12 5 -9 10 3 6 10 10 16 10 5 0 9 -4 9 -10z m877
-12 c-3 -8 -6 -5 -6 6 -1 11 2 17 5 13 3 -3 4 -12 1 -19z m-817 2 c0 -5 -5
-10 -11 -10 -5 0 -7 5 -4 10 3 6 8 10 11 10 2 0 4 -4 4 -10z m780 -6 c0 -8 -5
-12 -10 -9 -6 4 -8 11 -5 16 9 14 15 11 15 -7z m80 -4 c0 -5 7 -7 15 -4 9 4
15 0 15 -9 0 -13 -5 -13 -30 -4 -32 12 -40 27 -15 27 8 0 15 -4 15 -10z m68
-20 c1 -32 -12 -40 -22 -14 -4 11 8 39 20 44 1 0 1 -13 2 -30z m37 11 c3 -5 1
-12 -5 -16 -5 -3 -10 1 -10 9 0 18 6 21 15 7z m-1015 -11 c0 -5 -2 -10 -4 -10
-3 0 -8 5 -11 10 -3 6 -1 10 4 10 6 0 11 -4 11 -10z m96 -18 c6 -4 14 -21 17
-39 5 -25 3 -31 -8 -27 -8 3 -20 2 -26 -2 -9 -5 -7 -10 7 -15 16 -6 14 -7 -7
-6 -18 1 -25 6 -22 14 4 9 -1 11 -13 7 -17 -5 -17 -4 -3 8 9 7 14 19 12 26 -3
6 0 12 6 12 6 0 11 -8 12 -17 0 -15 2 -15 8 2 5 11 4 22 0 23 -11 4 -12 22 -1
22 4 0 12 -4 18 -8z m796 -14 c-6 -6 -8 -17 -5 -24 6 -17 -13 -19 -23 -2 -4 6
-2 14 4 16 7 2 12 10 12 18 0 9 5 12 11 8 7 -4 7 -10 1 -16z m-857 2 c3 -5 1
-10 -4 -10 -6 0 -11 5 -11 10 0 6 2 10 4 10 3 0 8 -4 11 -10z m-30 -10 c3 -5
-3 -10 -15 -10 -12 0 -18 5 -15 10 3 6 10 10 15 10 5 0 12 -4 15 -10z m185 0
c0 -5 -4 -10 -10 -10 -5 0 -10 5 -10 10 0 6 5 10 10 10 6 0 10 -4 10 -10z
m770 -16 c0 -8 -4 -12 -10 -9 -5 3 -10 10 -10 16 0 5 5 9 10 9 6 0 10 -7 10
-16z m-823 -16 c-3 -8 -6 -5 -6 6 -1 11 2 17 5 13 3 -3 4 -12 1 -19z m707 6
c4 -11 0 -15 -16 -12 -12 2 -23 9 -26 16 -6 18 35 15 42 -4z m-74 -14 c0 -5
-4 -10 -10 -10 -5 0 -10 5 -10 10 0 6 5 10 10 10 6 0 10 -4 10 -10z m141 -21
c-9 -22 -10 -22 -10 -3 -1 11 2 24 6 27 12 12 14 0 4 -24z m-93 -7 c9 9 15 9
24 0 9 -9 7 -13 -5 -18 -30 -11 -7 -23 24 -12 35 12 53 2 24 -15 -35 -19 -67
-18 -72 4 -5 19 -6 19 -24 -2 -11 -12 -19 -18 -19 -13 0 6 5 15 12 22 9 9 9
12 0 12 -13 0 -17 32 -5 44 4 3 12 -3 18 -14 8 -16 13 -18 23 -8z m62 18 c0
-5 -5 -10 -11 -10 -5 0 -7 5 -4 10 3 6 8 10 11 10 2 0 4 -4 4 -10z m-665 -10
c-3 -5 -11 -10 -16 -10 -6 0 -7 5 -4 10 3 6 11 10 16 10 6 0 7 -4 4 -10z m545
-12 c0 -5 -9 -6 -20 -3 -11 4 -20 2 -20 -4 0 -6 -5 -11 -12 -11 -6 0 -4 8 6
19 17 19 46 18 46 -1z m215 13 c3 -5 1 -12 -5 -16 -5 -3 -10 1 -10 9 0 18 6
21 15 7z m-723 -38 c-1 -2 -5 -3 -8 -2 -3 0 -14 -10 -25 -22 -10 -12 -22 -19
-27 -14 -4 4 -1 10 6 12 17 6 15 23 -3 23 -8 0 -15 5 -15 11 0 5 -4 7 -10 4
-15 -9 -13 -48 3 -39 6 4 4 -1 -5 -11 -22 -24 -26 -19 -20 28 4 36 6 38 31 32
54 -13 66 -15 53 -9 -6 3 -9 10 -6 16 4 6 11 3 17 -8 6 -11 10 -20 9 -21z
m-194 -13 c6 0 12 -5 12 -11 0 -7 8 -18 18 -26 9 -8 12 -12 5 -8 -7 3 -24 -2
-38 -11 -22 -14 -25 -15 -25 -1 0 9 5 19 10 22 17 10 11 25 -10 25 -11 0 -20
5 -20 10 0 6 -7 10 -16 10 -8 0 -13 4 -9 9 3 6 17 4 33 -5 15 -7 33 -14 40
-14z m62 15 c0 -8 -2 -15 -4 -15 -2 0 -6 7 -10 15 -3 8 -1 15 4 15 6 0 10 -7
10 -15z m817 -1 c-3 -3 -12 -4 -19 -1 -8 3 -5 6 6 6 11 1 17 -2 13 -5z m-960
-20 c-3 -3 -12 -4 -19 -1 -8 3 -5 6 6 6 11 1 17 -2 13 -5z m774 -3 c-12 -8
-12 -12 -2 -25 8 -10 9 -16 3 -16 -6 0 -13 4 -17 10 -4 6 -15 6 -30 0 -20 -7
-25 -6 -25 5 0 8 15 19 33 24 42 12 55 13 38 2z m-446 -21 c3 -5 1 -10 -4 -10
-6 0 -11 5 -11 10 0 6 2 10 4 10 3 0 8 -4 11 -10z m358 -7 c-7 -2 -13 -13 -13
-24 0 -10 -4 -19 -10 -19 -13 0 -13 6 0 31 6 10 16 19 23 18 9 0 9 -2 0 -6z
m202 -41 c-4 -4 -12 1 -19 10 -7 10 -16 15 -19 11 -4 -3 -7 -2 -7 4 0 21 14
22 33 2 10 -11 16 -23 12 -27z m-845 32 c0 -7 -27 -34 -34 -34 -3 0 -6 9 -6
20 0 13 7 20 20 20 11 0 20 -3 20 -6z m600 2 c0 -3 -4 -8 -10 -11 -5 -3 -10
-1 -10 4 0 6 5 11 10 11 6 0 10 -2 10 -4z m163 -17 c-6 -6 -9 -18 -6 -25 4
-10 0 -12 -11 -8 -9 3 -16 1 -16 -5 0 -6 -4 -11 -10 -11 -18 0 -10 29 12 44
26 18 47 21 31 5z m-661 -31 c-7 -7 -12 -8 -12 -2 0 14 12 26 19 19 2 -3 -1
-11 -7 -17z m708 14 c0 -14 -11 -21 -26 -15 -8 3 -11 9 -8 14 7 11 34 12 34 1z
m90 -2 c12 -8 11 -10 -5 -10 -12 0 -26 -5 -33 -12 -6 -6 -15 -9 -19 -5 -3 4 2
14 13 22 23 17 25 17 44 5z m-1020 -4 c0 -3 -4 -8 -10 -11 -5 -3 -10 -1 -10 4
0 6 5 11 10 11 6 0 10 -2 10 -4z m120 -15 c0 -11 -5 -23 -12 -27 -6 -4 -8 -3
-4 4 3 6 -6 15 -21 21 -21 8 -22 10 -5 7 12 -2 22 0 22 5 0 5 5 9 10 9 6 0 10
-9 10 -19z m260 4 c14 -16 10 -18 -14 -9 -9 3 -16 10 -16 15 0 14 16 11 30 -6z
m314 -10 c15 -16 12 -45 -6 -45 -5 0 -7 4 -3 9 3 5 1 12 -5 16 -10 6 -14 35
-6 35 3 0 11 -7 20 -15z m-519 -5 c8 -13 -5 -13 -25 0 -13 8 -13 10 2 10 9 0
20 -4 23 -10z m250 0 c3 -5 1 -10 -4 -10 -6 0 -11 5 -11 10 0 6 2 10 4 10 3 0
8 -4 11 -10z m50 -27 c-5 -76 -7 -88 -12 -69 -4 15 -7 16 -15 5 -6 -10 -7 -6
-2 11 4 14 11 28 16 31 13 8 12 20 -2 29 -7 4 -9 13 -6 19 12 18 23 4 21 -26z
m289 28 c13 -5 16 -10 8 -15 -11 -6 -52 9 -52 19 0 7 22 5 44 -4z m241 -11 c3
-5 1 -10 -4 -10 -6 0 -11 5 -11 10 0 6 2 10 4 10 3 0 8 -4 11 -10z m-910 -20
c3 -5 -1 -10 -9 -10 -9 0 -16 5 -16 10 0 6 4 10 9 10 6 0 13 -4 16 -10z m908
-14 c4 -10 0 -14 -13 -13 -14 1 -16 4 -8 14 13 16 15 16 21 -1z m-823 -32
c-18 -21 -24 -10 -8 15 7 12 14 17 16 11 2 -6 -2 -17 -8 -26z m342 11 c0 -5
-5 -11 -11 -13 -6 -2 -11 4 -11 13 0 9 5 15 11 13 6 -2 11 -8 11 -13z m142
-13 c2 -4 -4 -9 -15 -9 -10 -1 -19 2 -19 8 0 11 27 12 34 1z m125 -16 c16 -19
4 -45 -18 -39 -11 3 -21 -2 -24 -11 -7 -17 -37 -22 -37 -6 0 6 -7 10 -15 10
-8 0 -15 4 -15 10 0 5 -7 7 -15 4 -8 -4 -15 -1 -15 5 0 14 16 14 41 1 14 -8
19 -7 19 2 0 9 3 9 10 -2 8 -12 10 -12 16 3 3 9 10 14 15 11 5 -3 9 2 9 10 0
20 14 21 29 2z m-582 -2 c-3 -3 -12 -4 -19 -1 -8 3 -5 6 6 6 11 1 17 -2 13 -5z
m713 -4 c0 -5 -4 -10 -10 -10 -5 0 -10 5 -10 10 0 6 5 10 10 10 6 0 10 -4 10
-10z m-730 -30 c0 -5 -5 -10 -11 -10 -5 0 -7 5 -4 10 3 6 8 10 11 10 2 0 4 -4
4 -10z m441 -33 c-13 -13 -26 -3 -16 12 3 6 11 8 17 5 6 -4 6 -10 -1 -17z
m151 -5 c4 -13 0 -18 -13 -17 -21 1 -39 15 -21 15 7 0 12 7 12 16 0 20 16 10
22 -14z m-187 8 c3 -5 1 -10 -4 -10 -6 0 -11 5 -11 10 0 6 2 10 4 10 3 0 8 -4
11 -10z m445 -11 c0 -6 -4 -7 -10 -4 -5 3 -10 11 -10 16 0 6 5 7 10 4 6 -3 10
-11 10 -16z m-350 -9 c-12 -7 -12 -11 1 -26 13 -16 12 -17 -4 -11 -10 4 -21 7
-23 7 -2 0 -4 4 -4 9 0 14 31 43 38 36 4 -3 0 -10 -8 -15z m278 11 c11 -7 11
-9 -1 -14 -9 -3 -18 1 -21 9 -6 16 2 18 22 5z m-478 -11 c0 -5 -4 -10 -10 -10
-5 0 -10 5 -10 10 0 6 5 10 10 10 6 0 10 -4 10 -10z m105 -10 c-3 -5 -11 -10
-16 -10 -6 0 -7 5 -4 10 3 6 11 10 16 10 6 0 7 -4 4 -10z m353 -36 c-3 -14 -5
-12 -10 9 -3 19 -2 25 4 19 6 -6 8 -18 6 -28z m-210 11 c-2 -5 -8 -10 -15 -11
-6 -1 -9 4 -6 12 6 16 27 15 21 -1z m-158 -15 c0 -5 -7 -7 -15 -4 -8 4 -12 10
-9 15 6 11 24 2 24 -11z m80 11 c0 -12 -20 -25 -27 -18 -7 7 6 27 18 27 5 0 9
-4 9 -9z m-40 -21 c0 -5 -4 -10 -10 -10 -5 0 -10 5 -10 10 0 6 5 10 10 10 6 0
10 -4 10 -10z m440 -60 c0 -5 -4 -10 -10 -10 -5 0 -10 5 -10 10 0 6 5 10 10
10 6 0 10 -4 10 -10z m10 -50 c0 -5 -4 -10 -10 -10 -5 0 -10 5 -10 10 0 6 5
10 10 10 6 0 10 -4 10 -10z m-46 -21 c-3 -5 -10 -7 -15 -3 -5 3 -7 10 -3 15 3
5 10 7 15 3 5 -3 7 -10 3 -15z m-4 -29 c0 -5 -2 -10 -4 -10 -3 0 -8 5 -11 10
-3 6 -1 10 4 10 6 0 11 -4 11 -10z m-20 -70 c0 -5 -5 -10 -11 -10 -5 0 -7 5
-4 10 3 6 8 10 11 10 2 0 4 -4 4 -10z"/>
<path d="M31746 5563 c-4 -5 -13 -8 -19 -8 -7 0 -13 -8 -15 -18 -3 -16 -1 -17
17 -5 11 7 23 18 25 25 6 15 3 17 -8 6z"/>
<path d="M24430 5309 c0 -5 -11 -9 -25 -9 -14 0 -25 -5 -25 -10 0 -6 -11 -16
-25 -22 -14 -6 -25 -16 -25 -21 0 -5 -7 -15 -15 -21 -24 -18 -35 -91 -18 -115
9 -13 10 -21 3 -21 -25 0 36 -78 79 -102 85 -45 158 -32 224 41 44 48 49 85
26 174 -10 38 -49 82 -73 82 -8 0 -21 6 -30 14 -18 16 -96 24 -96 10z m40
-114 c0 -8 -4 -15 -10 -15 -5 0 -10 7 -10 15 0 8 5 15 10 15 6 0 10 -7 10 -15z
m50 -20 c0 -9 -6 -12 -15 -9 -8 4 -12 10 -9 15 8 14 24 10 24 -6z m55 -75 c3
-5 1 -10 -4 -10 -6 0 -11 5 -11 10 0 6 2 10 4 10 3 0 8 -4 11 -10z m-175 -30
c0 -5 -5 -10 -11 -10 -5 0 -7 5 -4 10 3 6 8 10 11 10 2 0 4 -4 4 -10z m95 -10
c3 -5 1 -10 -4 -10 -6 0 -11 5 -11 10 0 6 2 10 4 10 3 0 8 -4 11 -10z"/>
</g>
</svg>
